<svg xmlns="http://www.w3.org/2000/svg" xmlns:xlink="http://www.w3.org/1999/xlink" width="500" zoomAndPan="magnify" viewBox="0 0 375 374.999991" height="500" preserveAspectRatio="xMidYMid meet" version="1.0"><defs><clipPath id="ae9ac08465"><path d="M 6.5625 13 L 368.8125 13 L 368.8125 375 L 6.5625 375 Z M 6.5625 13 " clip-rule="nonzero"/></clipPath></defs><path fill="#0cc0df" d="M 354.203125 160.691406 C 350.113281 160.691406 346.371094 157.964844 345.257812 153.824219 L 345.207031 153.640625 C 343.875 148.699219 346.796875 143.609375 351.742188 142.273438 C 356.683594 140.9375 361.773438 143.863281 363.109375 148.804688 L 363.164062 149.015625 C 364.492188 153.957031 361.5625 159.042969 356.617188 160.371094 C 355.808594 160.589844 355 160.691406 354.203125 160.691406 Z M 340.429688 126.523438 C 337.074219 126.523438 333.835938 124.695312 332.1875 121.511719 L 332.097656 121.335938 C 329.742188 116.789062 331.519531 111.195312 336.066406 108.839844 C 340.609375 106.484375 346.207031 108.261719 348.5625 112.804688 L 348.65625 112.992188 C 351.007812 117.539062 349.230469 123.132812 344.683594 125.484375 C 343.320312 126.1875 341.863281 126.523438 340.429688 126.523438 Z M 320.230469 95.734375 C 317.816406 95.734375 315.40625 94.800781 313.585938 92.933594 L 313.484375 92.828125 C 309.890625 89.179688 309.929688 83.3125 313.578125 79.71875 C 317.222656 76.125 323.09375 76.167969 326.6875 79.8125 L 326.867188 79.996094 C 330.441406 83.664062 330.363281 89.535156 326.695312 93.105469 C 324.894531 94.859375 322.5625 95.734375 320.230469 95.734375 Z M 320.230469 95.734375 " fill-opacity="1" fill-rule="nonzero"/><path fill="#0cc0df" d="M 178.792969 197.753906 L 178.792969 220.832031 L 91.699219 220.832031 C 92.640625 212.109375 95.46875 203.84375 100.1875 196.03125 C 104.902344 188.21875 114.214844 177.859375 128.128906 164.949219 C 139.328125 154.515625 146.195312 147.441406 148.730469 143.726562 C 152.148438 138.601562 153.859375 133.53125 153.859375 128.519531 C 153.859375 122.980469 152.371094 118.71875 149.394531 115.742188 C 146.417969 112.765625 142.304688 111.277344 137.058594 111.277344 C 131.871094 111.277344 127.746094 112.839844 124.679688 115.960938 C 121.613281 119.089844 119.847656 124.273438 119.375 131.527344 L 94.617188 129.050781 C 96.089844 115.375 100.71875 105.558594 108.5 99.605469 C 116.28125 93.652344 126.007812 90.675781 137.679688 90.675781 C 150.46875 90.675781 160.519531 94.121094 167.832031 101.019531 C 175.140625 107.917969 178.796875 116.492188 178.796875 126.75 C 178.796875 132.585938 177.75 138.144531 175.65625 143.417969 C 173.5625 148.695312 170.246094 154.222656 165.710938 159.996094 C 162.703125 163.828125 157.277344 169.339844 149.4375 176.53125 C 141.597656 183.722656 136.632812 188.5 134.539062 190.855469 C 132.445312 193.214844 130.75 195.515625 129.457031 197.753906 Z M 178.792969 197.753906 " fill-opacity="1" fill-rule="nonzero"/><path fill="#0cc0df" d="M 244.316406 220.835938 L 244.316406 194.75 L 191.261719 194.75 L 191.261719 172.996094 L 247.5 90.671875 L 268.371094 90.671875 L 268.371094 172.90625 L 284.460938 172.90625 L 284.460938 194.75 L 268.367188 194.75 L 268.367188 220.835938 Z M 244.316406 172.90625 L 244.316406 128.609375 L 214.519531 172.90625 Z M 244.316406 172.90625 " fill-opacity="1" fill-rule="nonzero"/><path fill="#0cc0df" d="M 87.898438 291.304688 L 87.898438 249.984375 L 96.238281 249.984375 L 96.238281 266.246094 L 112.589844 266.246094 L 112.589844 249.984375 L 120.929688 249.984375 L 120.929688 291.304688 L 112.589844 291.304688 L 112.589844 273.238281 L 96.242188 273.238281 L 96.242188 291.304688 Z M 87.898438 291.304688 " fill-opacity="1" fill-rule="nonzero"/><path fill="#0cc0df" d="M 127.867188 270.898438 C 127.867188 266.691406 128.496094 263.15625 129.753906 260.300781 C 130.695312 258.195312 131.976562 256.308594 133.601562 254.632812 C 135.226562 252.960938 137.007812 251.722656 138.945312 250.914062 C 141.519531 249.824219 144.488281 249.28125 147.851562 249.28125 C 153.9375 249.28125 158.808594 251.167969 162.464844 254.945312 C 166.121094 258.722656 167.949219 263.976562 167.949219 270.703125 C 167.949219 277.371094 166.132812 282.59375 162.507812 286.359375 C 158.882812 290.128906 154.03125 292.011719 147.964844 292.011719 C 141.820312 292.011719 136.933594 290.136719 133.308594 286.386719 C 129.679688 282.636719 127.867188 277.476562 127.867188 270.898438 Z M 136.460938 270.617188 C 136.460938 275.296875 137.542969 278.84375 139.703125 281.257812 C 141.863281 283.671875 144.609375 284.878906 147.933594 284.878906 C 151.261719 284.878906 153.988281 283.683594 156.121094 281.285156 C 158.253906 278.890625 159.320312 275.296875 159.320312 270.503906 C 159.320312 265.769531 158.285156 262.238281 156.207031 259.90625 C 154.128906 257.578125 151.375 256.414062 147.933594 256.414062 C 144.496094 256.414062 141.722656 257.59375 139.617188 259.949219 C 137.515625 262.308594 136.460938 265.863281 136.460938 270.617188 Z M 136.460938 270.617188 " fill-opacity="1" fill-rule="nonzero"/><path fill="#0cc0df" d="M 174.402344 249.984375 L 182.746094 249.984375 L 182.746094 272.363281 C 182.746094 275.914062 182.847656 278.21875 183.054688 279.269531 C 183.410156 280.960938 184.261719 282.320312 185.605469 283.34375 C 186.949219 284.367188 188.785156 284.878906 191.113281 284.878906 C 193.484375 284.878906 195.269531 284.394531 196.472656 283.429688 C 197.671875 282.460938 198.398438 281.273438 198.640625 279.863281 C 198.886719 278.453125 199.007812 276.113281 199.007812 272.84375 L 199.007812 249.984375 L 207.351562 249.984375 L 207.351562 271.6875 C 207.351562 276.648438 207.125 280.152344 206.675781 282.203125 C 206.222656 284.25 205.390625 285.980469 204.179688 287.386719 C 202.96875 288.796875 201.347656 289.921875 199.316406 290.757812 C 197.289062 291.59375 194.640625 292.011719 191.367188 292.011719 C 187.421875 292.011719 184.429688 291.554688 182.390625 290.644531 C 180.351562 289.730469 178.742188 288.546875 177.558594 287.089844 C 176.375 285.636719 175.59375 284.109375 175.21875 282.511719 C 174.671875 280.144531 174.398438 276.648438 174.398438 272.027344 L 174.398438 249.984375 Z M 174.402344 249.984375 " fill-opacity="1" fill-rule="nonzero"/><path fill="#0cc0df" d="M 216.171875 291.304688 L 216.171875 249.984375 L 233.734375 249.984375 C 238.148438 249.984375 241.359375 250.355469 243.359375 251.097656 C 245.359375 251.839844 246.960938 253.160156 248.164062 255.058594 C 249.367188 256.957031 249.96875 259.125 249.96875 261.570312 C 249.96875 264.667969 249.054688 267.230469 247.234375 269.25 C 245.410156 271.269531 242.6875 272.542969 239.058594 273.070312 C 240.863281 274.121094 242.351562 275.277344 243.527344 276.535156 C 244.703125 277.796875 246.285156 280.03125 248.277344 283.246094 L 253.324219 291.304688 L 243.34375 291.304688 L 237.3125 282.3125 C 235.171875 279.101562 233.707031 277.078125 232.914062 276.238281 C 232.125 275.402344 231.289062 274.832031 230.40625 274.519531 C 229.523438 274.210938 228.125 274.054688 226.207031 274.054688 L 224.515625 274.054688 L 224.515625 291.304688 Z M 224.515625 267.460938 L 230.6875 267.460938 C 234.691406 267.460938 237.191406 267.292969 238.1875 266.953125 C 239.183594 266.613281 239.964844 266.03125 240.527344 265.207031 C 241.089844 264.378906 241.371094 263.34375 241.371094 262.105469 C 241.371094 260.714844 241 259.59375 240.257812 258.738281 C 239.515625 257.882812 238.46875 257.339844 237.117188 257.117188 C 236.4375 257.023438 234.410156 256.976562 231.027344 256.976562 L 224.515625 256.976562 Z M 224.515625 267.460938 " fill-opacity="1" fill-rule="nonzero"/><path fill="#0cc0df" d="M 255.71875 277.859375 L 263.835938 277.070312 C 264.324219 279.796875 265.316406 281.796875 266.808594 283.074219 C 268.304688 284.355469 270.320312 284.992188 272.855469 284.992188 C 275.542969 284.992188 277.566406 284.421875 278.929688 283.285156 C 280.292969 282.148438 280.972656 280.820312 280.972656 279.296875 C 280.972656 278.320312 280.6875 277.488281 280.113281 276.804688 C 279.542969 276.117188 278.539062 275.519531 277.113281 275.011719 C 276.136719 274.675781 273.910156 274.074219 270.433594 273.207031 C 265.960938 272.101562 262.820312 270.738281 261.019531 269.121094 C 258.480469 266.847656 257.214844 264.078125 257.214844 260.808594 C 257.214844 258.703125 257.808594 256.734375 259.003906 254.902344 C 260.195312 253.070312 261.917969 251.675781 264.160156 250.714844 C 266.40625 249.757812 269.117188 249.28125 272.292969 249.28125 C 277.480469 249.28125 281.382812 250.417969 284.003906 252.691406 C 286.625 254.964844 288 258 288.132812 261.792969 L 279.789062 262.160156 C 279.433594 260.035156 278.667969 258.511719 277.492188 257.578125 C 276.316406 256.648438 274.558594 256.183594 272.207031 256.183594 C 269.785156 256.183594 267.886719 256.683594 266.515625 257.679688 C 265.632812 258.316406 265.191406 259.171875 265.191406 260.242188 C 265.191406 261.21875 265.601562 262.058594 266.429688 262.753906 C 267.480469 263.636719 270.039062 264.554688 274.097656 265.515625 C 278.15625 266.472656 281.15625 267.464844 283.101562 268.488281 C 285.046875 269.511719 286.570312 270.910156 287.667969 272.6875 C 288.765625 274.464844 289.316406 276.65625 289.316406 279.269531 C 289.316406 281.636719 288.660156 283.855469 287.34375 285.921875 C 286.027344 287.988281 284.167969 289.523438 281.761719 290.53125 C 279.355469 291.535156 276.359375 292.039062 272.769531 292.039062 C 267.546875 292.039062 263.535156 290.832031 260.734375 288.414062 C 257.9375 286.003906 256.261719 282.484375 255.71875 277.859375 Z M 255.71875 277.859375 " fill-opacity="1" fill-rule="nonzero"/><g clip-path="url(#ae9ac08465)"><path fill="#0cc0df" d="M 187.496094 374.996094 C 163.085938 374.996094 139.390625 370.210938 117.070312 360.769531 C 95.523438 351.65625 76.179688 338.617188 59.574219 322.011719 C 42.972656 305.410156 29.929688 286.0625 20.816406 264.519531 C 11.375 242.199219 6.589844 218.503906 6.589844 194.09375 C 6.589844 169.6875 11.375 145.992188 20.816406 123.667969 C 29.929688 102.125 42.972656 82.78125 59.574219 66.175781 C 76.179688 49.570312 95.523438 36.53125 117.066406 27.417969 C 139.390625 17.976562 163.085938 13.191406 187.492188 13.191406 C 211.902344 13.191406 235.597656 17.976562 257.917969 27.417969 C 258.6875 27.746094 259.464844 28.082031 260.230469 28.417969 C 265.898438 30.90625 268.472656 37.515625 265.984375 43.183594 C 263.496094 48.847656 256.886719 51.425781 251.21875 48.9375 C 250.546875 48.640625 249.863281 48.347656 249.1875 48.0625 C 229.644531 39.792969 208.886719 35.605469 187.496094 35.605469 C 166.101562 35.605469 145.34375 39.796875 125.800781 48.0625 C 106.925781 56.042969 89.976562 67.472656 75.425781 82.027344 C 60.871094 96.578125 49.445312 113.527344 41.460938 132.402344 C 33.191406 151.945312 29.003906 172.703125 29.003906 194.097656 C 29.003906 215.488281 33.195312 236.246094 41.460938 255.789062 C 49.441406 274.664062 60.871094 291.613281 75.425781 306.167969 C 89.976562 320.71875 106.925781 332.148438 125.800781 340.128906 C 145.34375 348.398438 166.101562 352.589844 187.496094 352.589844 C 208.886719 352.589844 229.644531 348.398438 249.1875 340.128906 C 268.0625 332.148438 285.011719 320.71875 299.566406 306.167969 C 314.117188 291.613281 325.546875 274.664062 333.527344 255.789062 C 341.796875 236.246094 345.988281 215.488281 345.988281 194.097656 C 345.988281 187.90625 351.003906 182.890625 357.191406 182.890625 C 363.382812 182.890625 368.398438 187.90625 368.398438 194.097656 C 368.398438 218.503906 363.609375 242.199219 354.171875 264.519531 C 345.058594 286.066406 332.019531 305.410156 315.414062 322.015625 C 298.808594 338.617188 279.464844 351.660156 257.921875 360.769531 C 235.597656 370.210938 211.90625 374.996094 187.496094 374.996094 Z M 187.496094 374.996094 " fill-opacity="1" fill-rule="nonzero"/></g><path fill="#0cc0df" d="M 227.660156 70.273438 L 300.265625 73.753906 C 303.476562 73.90625 305.648438 70.527344 304.179688 67.667969 L 270.898438 3.050781 C 269.425781 0.191406 265.410156 -0.00390625 263.671875 2.703125 L 224.347656 63.84375 C 222.609375 66.546875 224.449219 70.121094 227.660156 70.273438 Z M 227.660156 70.273438 " fill-opacity="1" fill-rule="nonzero"/></svg>