<svg xmlns="http://www.w3.org/2000/svg" xmlns:xlink="http://www.w3.org/1999/xlink" width="500" zoomAndPan="magnify" viewBox="0 0 375 374.999991" height="500" preserveAspectRatio="xMidYMid meet" version="1.0"><defs><clipPath id="7c41378161"><path d="M 86 297 L 368 297 L 368 350.878906 L 86 350.878906 Z M 86 297 " clip-rule="nonzero"/></clipPath></defs><path fill="#19ceea" d="M 240.5625 68.453125 C 230.980469 68.453125 221.449219 68.40625 212.011719 68.359375 C 204.910156 68.324219 197.816406 68.289062 190.726562 68.273438 C 185.5625 68.265625 180.421875 68.28125 175.292969 68.304688 C 156.816406 68.375 137.714844 68.453125 118.722656 66.949219 C 117.363281 66.84375 115.308594 66.820312 112.925781 66.792969 C 102.09375 66.671875 85.726562 66.484375 81.058594 58.722656 C 78.605469 54.632812 78.925781 47.851562 79.269531 40.667969 C 79.324219 39.558594 79.375 38.449219 79.417969 37.351562 C 79.636719 31.480469 83.851562 26.605469 89.664062 25.496094 C 98.832031 23.75 108.558594 23.578125 117.960938 23.410156 C 121.738281 23.347656 125.308594 23.28125 128.773438 23.121094 C 141.191406 22.539062 153.800781 22.265625 166 22 C 176.28125 21.773438 186.914062 21.542969 197.351562 21.128906 C 234.261719 19.664062 271.332031 19.570312 302.71875 19.667969 C 309.515625 19.699219 316.421875 19.515625 323.109375 19.34375 C 329.472656 19.179688 336.054688 19.011719 342.578125 19.011719 C 343.683594 19.011719 344.914062 18.96875 346.21875 18.921875 C 353.730469 18.648438 364.015625 18.277344 368.53125 26.210938 C 371.472656 31.382812 372.449219 47.925781 370.71875 53.292969 C 368.585938 59.890625 363.96875 60.882812 358.625 62.03125 L 357.371094 62.300781 C 343.085938 65.457031 327.796875 66.160156 313.011719 66.84375 C 311.085938 66.933594 309.175781 67.019531 307.277344 67.113281 C 285.167969 68.203125 262.730469 68.453125 240.5625 68.453125 Z M 187.648438 62.984375 C 188.675781 62.984375 189.707031 62.988281 190.734375 62.988281 C 197.832031 63.003906 204.933594 63.039062 212.039062 63.074219 C 243.234375 63.226562 275.492188 63.386719 307.015625 61.835938 C 308.917969 61.742188 310.835938 61.652344 312.769531 61.5625 C 327.328125 60.890625 342.386719 60.195312 356.234375 57.140625 L 357.515625 56.863281 C 362.816406 55.722656 364.546875 55.195312 365.6875 51.667969 C 367.097656 47.308594 365.949219 32.363281 363.9375 28.824219 C 361.003906 23.675781 353.253906 23.953125 346.410156 24.199219 C 345.058594 24.25 343.777344 24.296875 342.578125 24.296875 C 336.125 24.296875 329.574219 24.464844 323.242188 24.625 C 316.519531 24.796875 309.550781 24.96875 302.703125 24.953125 C 271.367188 24.851562 234.371094 24.949219 197.5625 26.410156 C 187.074219 26.824219 176.417969 27.058594 166.113281 27.28125 C 153.949219 27.546875 141.371094 27.820312 129.023438 28.398438 C 125.480469 28.5625 121.875 28.628906 118.054688 28.695312 C 108.871094 28.855469 99.378906 29.023438 90.65625 30.6875 C 87.277344 31.332031 84.824219 34.152344 84.699219 37.550781 C 84.65625 38.664062 84.601562 39.792969 84.546875 40.921875 C 84.269531 46.714844 83.957031 53.285156 85.589844 55.996094 C 88.734375 61.234375 104.511719 61.410156 112.984375 61.507812 C 115.464844 61.535156 117.605469 61.558594 119.140625 61.679688 C 137.914062 63.164062 156.90625 63.089844 175.273438 63.015625 C 179.386719 63.003906 183.511719 62.984375 187.648438 62.984375 Z M 187.648438 62.984375 " fill-opacity="1" fill-rule="nonzero"/><path fill="#257d93" d="M 190.675781 140.648438 C 185.9375 140.648438 181.210938 140.585938 176.574219 140.519531 L 172.042969 140.460938 C 164.203125 140.367188 156.371094 139.183594 148.792969 138.042969 C 142.136719 137.042969 135.257812 136.007812 128.464844 135.726562 C 115.664062 135.203125 102.621094 135.1875 91.402344 135.21875 L 90.730469 135.21875 C 84.386719 135.242188 79.792969 135.261719 77.417969 126.214844 C 75.507812 118.953125 77.242188 112.449219 79.074219 105.5625 C 79.898438 102.46875 80.75 99.273438 81.320312 95.839844 C 82.339844 89.734375 87.585938 85.300781 93.796875 85.300781 C 93.796875 85.300781 93.796875 85.300781 93.800781 85.300781 C 159.914062 85.324219 238.066406 85.574219 316.4375 87.277344 C 318.941406 87.324219 322.292969 87.097656 325.84375 86.855469 C 339.488281 85.914062 358.183594 84.632812 363.394531 96.671875 C 366.496094 103.84375 368.066406 120.515625 365.414062 127.738281 C 363.171875 133.855469 359.039062 134.046875 354.253906 134.269531 C 353.492188 134.304688 352.667969 134.34375 351.78125 134.40625 C 343.339844 134.980469 334.78125 134.945312 326.503906 134.910156 C 318.773438 134.878906 310.78125 134.847656 302.972656 135.316406 C 289.449219 136.132812 274.695312 136.527344 257.890625 136.527344 C 257.769531 136.527344 257.644531 136.527344 257.527344 136.527344 C 247.371094 136.527344 237.203125 137.550781 227.371094 138.539062 C 219.207031 139.363281 210.765625 140.210938 202.308594 140.480469 C 198.453125 140.605469 194.558594 140.648438 190.675781 140.648438 Z M 97.304688 129.925781 C 107.128906 129.925781 117.972656 130.007812 128.679688 130.449219 C 135.757812 130.738281 142.785156 131.796875 149.582031 132.820312 C 156.980469 133.933594 164.628906 135.085938 172.105469 135.175781 L 176.648438 135.238281 C 185.027344 135.351562 193.695312 135.472656 202.144531 135.199219 C 210.417969 134.933594 218.769531 134.09375 226.84375 133.285156 C 236.804688 132.28125 247.105469 131.246094 257.527344 131.246094 C 257.652344 131.242188 257.769531 131.246094 257.890625 131.246094 C 274.589844 131.246094 289.238281 130.851562 302.65625 130.042969 C 310.632812 129.5625 318.710938 129.59375 326.527344 129.628906 C 334.714844 129.664062 343.175781 129.699219 351.421875 129.136719 C 352.351562 129.070312 353.210938 129.03125 354.011719 128.992188 C 358.808594 128.769531 359.457031 128.636719 360.453125 125.921875 C 362.589844 120.097656 361.136719 104.769531 358.542969 98.773438 C 354.820312 90.164062 338.285156 91.300781 326.207031 92.132812 C 322.53125 92.382812 319.054688 92.625 316.320312 92.5625 C 238.003906 90.863281 159.882812 90.613281 93.796875 90.589844 C 90.179688 90.589844 87.125 93.164062 86.535156 96.710938 C 85.921875 100.394531 85.039062 103.714844 84.183594 106.925781 C 82.460938 113.386719 80.976562 118.964844 82.527344 124.875 C 83.867188 129.964844 84.65625 129.960938 90.710938 129.9375 L 91.390625 129.933594 C 93.3125 129.929688 95.285156 129.925781 97.304688 129.925781 Z M 97.304688 129.925781 " fill-opacity="1" fill-rule="nonzero"/><path fill="#0f424d" d="M 197.746094 218.273438 C 179.207031 218.273438 160.539062 217.929688 142.269531 216.5625 C 136.570312 216.132812 130.753906 215.824219 125.128906 215.527344 C 120.191406 215.265625 115.082031 214.996094 110.054688 214.644531 C 108.019531 214.503906 105.492188 214.621094 102.8125 214.742188 C 97.71875 214.980469 92.457031 215.21875 88.4375 213.875 C 76.5625 209.890625 73.066406 194.214844 78.332031 168.539062 C 79.503906 162.835938 84.597656 158.785156 90.378906 158.90625 C 104.765625 159.207031 119.363281 160.175781 133.480469 161.113281 C 150.492188 162.238281 168.082031 163.40625 185.394531 163.40625 C 217.046875 163.410156 258.816406 163.617188 301.214844 165.230469 C 311.375 165.617188 321.769531 165.296875 331.816406 164.984375 C 339.246094 164.757812 346.933594 164.515625 354.457031 164.570312 L 355.960938 164.582031 L 356.71875 165.878906 C 359.417969 170.492188 359.75 176.363281 360.039062 181.542969 C 360.121094 182.980469 360.195312 184.335938 360.320312 185.617188 C 360.410156 186.589844 360.578125 187.785156 360.761719 189.050781 C 361.488281 194.164062 362.394531 200.523438 360.226562 204.710938 C 355.816406 213.222656 342.078125 214.128906 332.046875 214.792969 C 329.738281 214.949219 327.742188 215.078125 326.222656 215.285156 C 305.339844 218.125 283.523438 218.039062 262.417969 217.953125 C 257.351562 217.933594 252.316406 217.914062 247.320312 217.933594 C 240.25 217.960938 233.140625 218.027344 226.003906 218.097656 C 216.667969 218.183594 207.222656 218.273438 197.746094 218.273438 Z M 107.910156 209.296875 C 108.78125 209.296875 109.621094 209.316406 110.421875 209.375 C 115.40625 209.722656 120.492188 209.992188 125.40625 210.25 C 131.0625 210.546875 136.90625 210.859375 142.664062 211.289062 C 170.046875 213.34375 198.46875 213.070312 225.953125 212.808594 C 233.097656 212.742188 240.21875 212.675781 247.296875 212.644531 C 252.304688 212.625 257.359375 212.648438 262.4375 212.664062 C 283.363281 212.75 304.992188 212.839844 325.511719 210.046875 C 327.210938 209.816406 329.292969 209.679688 331.699219 209.519531 C 339.980469 208.96875 352.492188 208.144531 355.535156 202.277344 C 356.925781 199.59375 356.121094 193.929688 355.527344 189.792969 C 355.339844 188.464844 355.160156 187.207031 355.058594 186.113281 C 354.925781 184.734375 354.847656 183.328125 354.765625 181.839844 C 354.523438 177.597656 354.277344 173.230469 352.816406 169.847656 C 345.886719 169.839844 338.832031 170.054688 331.980469 170.265625 C 321.84375 170.578125 311.359375 170.902344 301.011719 170.511719 C 258.703125 168.902344 217 168.691406 185.394531 168.691406 C 167.90625 168.691406 150.226562 167.515625 133.132812 166.382812 C 119.070312 165.449219 104.535156 164.484375 90.265625 164.1875 C 90.21875 164.1875 90.171875 164.1875 90.125 164.1875 C 86.925781 164.1875 84.15625 166.445312 83.507812 169.601562 C 80.855469 182.546875 78.183594 204.859375 90.117188 208.863281 C 93.199219 209.894531 98.175781 209.667969 102.566406 209.464844 C 104.433594 209.378906 106.234375 209.296875 107.910156 209.296875 Z M 107.910156 209.296875 " fill-opacity="1" fill-rule="nonzero"/><path fill="#1d1c1c" d="M 267.300781 286.027344 C 243.023438 286.027344 218.796875 285.050781 194.984375 284.089844 C 175.375 283.300781 155.097656 282.484375 135.289062 282.238281 C 121.667969 282.066406 105.265625 279.828125 91.410156 276.242188 C 82.410156 273.917969 82.269531 269.902344 82.019531 262.621094 L 82.011719 262.421875 C 81.773438 255.628906 82.445312 249.214844 86.507812 239.984375 C 88.195312 236.15625 91.824219 233.5 95.980469 233.050781 C 119.003906 230.570312 142.929688 231.191406 166.070312 231.789062 C 176.136719 232.050781 186.546875 232.320312 196.617188 232.320312 C 200.6875 232.320312 204.765625 232.335938 208.839844 232.347656 C 223.488281 232.402344 238.640625 232.453125 253.476562 231.8125 C 267.316406 231.214844 281.351562 231.566406 294.925781 231.90625 C 303.070312 232.109375 311.492188 232.320312 319.753906 232.320312 C 319.753906 232.320312 319.757812 232.320312 319.757812 232.320312 C 321.503906 232.320312 324.472656 232.109375 327.914062 231.863281 C 349.363281 230.324219 368.914062 229.726562 372.511719 239.164062 C 375 245.691406 373.0625 259.5625 372.109375 264.359375 C 369.140625 279.253906 350.183594 281.152344 337.640625 282.40625 C 336.496094 282.523438 335.394531 282.632812 334.359375 282.746094 C 312.164062 285.195312 289.710938 286.027344 267.300781 286.027344 Z M 91.34375 242.117188 C 87.675781 250.453125 87.070312 255.996094 87.292969 262.238281 L 87.296875 262.4375 C 87.539062 269.371094 87.554688 269.789062 92.734375 271.128906 C 106.203125 274.613281 122.136719 276.789062 135.355469 276.953125 C 155.238281 277.199219 175.550781 278.015625 195.199219 278.808594 C 240.789062 280.644531 287.9375 282.546875 333.78125 277.496094 C 334.835938 277.378906 335.953125 277.265625 337.113281 277.148438 C 348.765625 275.980469 364.722656 274.382812 366.925781 263.324219 C 368.242188 256.722656 369.199219 245.308594 367.574219 241.046875 C 365.078125 234.5 339.300781 236.34375 328.292969 237.132812 C 324.605469 237.398438 321.695312 237.605469 319.757812 237.605469 C 319.753906 237.605469 319.753906 237.605469 319.75 237.605469 C 311.429688 237.605469 302.972656 237.394531 294.792969 237.191406 C 281.3125 236.855469 267.367188 236.503906 253.703125 237.09375 C 238.746094 237.738281 223.53125 237.6875 208.820312 237.636719 C 204.75 237.621094 200.683594 237.609375 196.613281 237.609375 C 186.480469 237.609375 176.035156 237.335938 165.933594 237.074219 C 142.96875 236.480469 119.21875 235.863281 96.546875 238.308594 C 94.261719 238.554688 92.269531 240.011719 91.34375 242.117188 Z M 91.34375 242.117188 " fill-opacity="1" fill-rule="nonzero"/><g clip-path="url(#7c41378161)"><path fill="#191617" d="M 248.320312 350.289062 C 242.171875 350.289062 236.050781 350.257812 229.976562 350.222656 C 223.824219 350.1875 217.679688 350.152344 211.546875 350.152344 L 205.511719 350.15625 C 184.8125 350.175781 163.402344 350.199219 142.382812 347.863281 C 130.710938 346.566406 120.148438 345.496094 109.023438 345.496094 C 108.21875 345.496094 106.875 345.636719 105.453125 345.785156 C 100.40625 346.3125 94.125 346.96875 90.828125 344.28125 C 85.929688 340.296875 85.644531 330.199219 86.800781 314.105469 L 86.800781 314.101562 C 87.4375 305.296875 93.722656 298.429688 101.429688 298.125 C 142.542969 296.507812 184.308594 297.199219 224.703125 297.871094 C 246.675781 298.234375 269.398438 298.613281 291.738281 298.613281 L 343.722656 298.613281 C 344.914062 298.613281 346.125 298.550781 347.296875 298.488281 C 353.050781 298.1875 359.566406 297.847656 363.765625 305.542969 C 367.316406 312.050781 367.996094 323.460938 367.09375 331.886719 C 367.070312 332.097656 367.207031 332.53125 367.339844 332.949219 C 367.703125 334.125 368.316406 336.089844 367.058594 338.246094 C 365.046875 341.695312 358.828125 342.964844 353.011719 343.753906 L 352.785156 343.785156 C 344.824219 344.867188 336.679688 345.519531 328.804688 346.148438 C 323.402344 346.582031 317.8125 347.03125 312.367188 347.613281 C 291.152344 349.878906 269.566406 350.289062 248.320312 350.289062 Z M 211.546875 344.402344 C 217.691406 344.402344 223.847656 344.4375 230.011719 344.472656 C 256.90625 344.628906 284.722656 344.785156 311.757812 341.894531 C 317.277344 341.304688 322.902344 340.855469 328.34375 340.417969 C 336.144531 339.796875 344.207031 339.148438 352.007812 338.085938 L 352.242188 338.054688 C 359.96875 337.011719 361.699219 335.761719 362.054688 335.386719 C 362.023438 335.210938 361.921875 334.898438 361.847656 334.65625 C 361.585938 333.816406 361.226562 332.667969 361.378906 331.273438 C 362.15625 323.980469 361.65625 313.683594 358.71875 308.292969 C 356.359375 303.964844 353.4375 303.925781 347.59375 304.226562 C 346.347656 304.289062 345.0625 304.355469 343.722656 304.355469 L 291.738281 304.355469 C 269.351562 304.355469 246.601562 303.980469 224.605469 303.613281 C 184.292969 302.945312 142.605469 302.253906 101.652344 303.867188 C 96.878906 304.054688 92.957031 308.632812 92.535156 314.511719 C 92.050781 321.226562 90.917969 336.945312 94.457031 339.824219 C 95.898438 341 101.949219 340.371094 104.855469 340.066406 C 106.496094 339.894531 107.917969 339.746094 109.019531 339.746094 C 120.441406 339.746094 131.171875 340.835938 143.015625 342.148438 C 163.714844 344.449219 184.960938 344.429688 205.507812 344.40625 Z M 211.546875 344.402344 " fill-opacity="1" fill-rule="nonzero"/></g><path fill="#19ceea" d="M 31.136719 66.832031 C 26.578125 66.832031 22.210938 66.273438 17.695312 65.695312 L 15.726562 65.449219 C 11.933594 64.972656 8.878906 62.003906 8.292969 58.222656 L 8.121094 57.132812 C 6.875 49.191406 4.996094 37.1875 9.964844 31.585938 C 11.707031 29.625 14.136719 28.625 17.007812 28.621094 C 27.234375 26.585938 37.765625 25.976562 47.476562 26.863281 C 58.585938 27.878906 58.777344 38.867188 58.90625 46.140625 C 58.933594 47.644531 58.957031 49.066406 59.050781 50.359375 C 59.097656 51.023438 59.195312 51.679688 59.289062 52.316406 C 59.652344 54.792969 60.148438 58.1875 56.644531 60.90625 C 53.964844 62.988281 48.667969 64.230469 43.011719 65.421875 C 42.46875 65.535156 41.96875 65.640625 41.53125 65.738281 C 37.878906 66.535156 34.457031 66.832031 31.136719 66.832031 Z M 16.917969 34.367188 C 15.386719 34.367188 14.695312 34.914062 14.265625 35.402344 C 11.09375 38.976562 12.855469 50.207031 13.800781 56.242188 L 13.972656 57.34375 C 14.164062 58.601562 15.179688 59.585938 16.441406 59.742188 L 18.425781 59.996094 C 25.714844 60.925781 32.605469 61.808594 40.300781 60.121094 C 40.75 60.023438 41.265625 59.914062 41.824219 59.796875 C 44.890625 59.148438 51.265625 57.804688 53.121094 56.363281 C 53.882812 55.777344 53.957031 55.558594 53.601562 53.144531 C 53.5 52.441406 53.382812 51.644531 53.320312 50.773438 C 53.214844 49.324219 53.1875 47.824219 53.160156 46.238281 C 53.003906 37.332031 52.339844 33.078125 46.953125 32.585938 C 37.820312 31.75 27.480469 32.363281 17.835938 34.3125 L 17.5 34.382812 L 17.164062 34.371094 C 17.078125 34.367188 16.996094 34.367188 16.917969 34.367188 Z M 16.917969 34.367188 " fill-opacity="1" fill-rule="nonzero"/><path fill="#257d93" d="M 32.621094 132.765625 C 26.304688 132.765625 20 132.078125 13.902344 130.1875 C 5.359375 127.542969 4.292969 122.449219 3.71875 115.542969 C 3.636719 114.550781 3.5 113.46875 3.351562 112.324219 C 2.554688 106.136719 1.464844 97.660156 7.976562 89.46875 C 9.183594 87.953125 10.921875 86.847656 12.871094 86.355469 C 24.46875 83.445312 39.105469 84.289062 50.863281 84.96875 L 52.335938 85.054688 C 63.886719 85.714844 64.265625 95.828125 64.546875 103.210938 C 64.601562 104.710938 64.65625 106.125 64.78125 107.460938 C 64.878906 108.523438 65.03125 109.640625 65.191406 110.820312 C 65.785156 115.148438 66.457031 120.054688 64.628906 124.5 C 62.410156 129.890625 57.871094 130.425781 53.867188 130.894531 C 53.257812 130.96875 52.632812 131.039062 51.992188 131.132812 C 45.664062 132.03125 39.136719 132.765625 32.621094 132.765625 Z M 12.476562 93.046875 C 7.476562 99.335938 8.3125 105.847656 9.050781 111.59375 C 9.207031 112.800781 9.355469 113.945312 9.449219 115.066406 C 9.980469 121.492188 10.609375 123.152344 15.601562 124.699219 C 26.902344 128.199219 39.382812 127.125 51.179688 125.441406 C 51.871094 125.34375 52.542969 125.265625 53.195312 125.1875 C 57.050781 124.734375 58.425781 124.46875 59.316406 122.3125 C 60.554688 119.300781 60.019531 115.386719 59.5 111.601562 C 59.335938 110.410156 59.167969 109.179688 59.058594 107.992188 C 58.921875 106.5 58.859375 104.9375 58.804688 103.429688 C 58.476562 94.707031 57.769531 91.121094 52.011719 90.792969 L 50.535156 90.707031 C 39.167969 90.050781 25.019531 89.234375 14.277344 91.933594 C 13.539062 92.117188 12.902344 92.511719 12.476562 93.046875 Z M 12.476562 93.046875 " fill-opacity="1" fill-rule="nonzero"/><path fill="#0f424d" d="M 27.1875 212.871094 C 20.558594 212.871094 14.054688 211.679688 9.214844 207.363281 C 0.0078125 199.15625 1.660156 182.386719 8.054688 170.0625 C 9.339844 167.585938 11.597656 165.855469 14.246094 165.3125 C 19.214844 164.300781 25.117188 164.464844 30.328125 164.609375 C 32.109375 164.660156 33.789062 164.707031 35.347656 164.707031 C 36.964844 164.707031 38.710938 164.601562 40.5625 164.492188 C 44.605469 164.253906 48.78125 164.003906 52.59375 164.757812 C 63.921875 166.988281 63.902344 183.058594 63.894531 189.921875 C 63.894531 190.898438 64.070312 192.277344 64.261719 193.738281 C 64.679688 196.992188 65.117188 200.359375 64.199219 202.90625 C 61.660156 209.96875 51.0625 210.824219 45.972656 211.234375 C 44.214844 211.375 42.277344 211.605469 40.226562 211.847656 C 36.132812 212.335938 31.628906 212.871094 27.1875 212.871094 Z M 24.433594 170.25 C 21.246094 170.25 18.082031 170.398438 15.394531 170.945312 C 14.453125 171.136719 13.636719 171.78125 13.15625 172.710938 C 7.917969 182.808594 6.09375 196.882812 13.039062 203.074219 C 19.191406 208.558594 30.480469 207.21875 39.550781 206.144531 C 41.65625 205.894531 43.644531 205.65625 45.507812 205.507812 C 48.476562 205.265625 57.503906 204.539062 58.792969 200.960938 C 59.238281 199.71875 58.847656 196.6875 58.5625 194.476562 C 58.347656 192.824219 58.148438 191.261719 58.148438 189.914062 C 58.15625 182.101562 57.476562 171.578125 51.480469 170.394531 C 48.390625 169.785156 44.582031 170.011719 40.902344 170.230469 C 39.050781 170.339844 37.132812 170.453125 35.347656 170.453125 C 33.707031 170.453125 31.988281 170.40625 30.164062 170.355469 C 28.3125 170.304688 26.371094 170.25 24.433594 170.25 Z M 24.433594 170.25 " fill-opacity="1" fill-rule="nonzero"/><path fill="#1d1c1c" d="M 31.484375 279.585938 C 24.769531 279.585938 17.140625 278.964844 12.066406 275.757812 C 3.027344 270.046875 2.296875 254.078125 6.796875 242.5625 C 8.710938 237.664062 13.503906 234.558594 18.765625 234.855469 C 23.441406 235.105469 28.324219 234.890625 33.046875 234.683594 C 39.800781 234.382812 46.789062 234.070312 53.644531 235.078125 L 54.230469 235.160156 C 57.605469 235.644531 62.230469 236.308594 64.914062 238.707031 C 70.800781 243.964844 70.382812 262.15625 67.460938 267.433594 C 62.542969 276.316406 47.367188 279.136719 39.175781 279.40625 L 38.089844 279.441406 C 36.101562 279.507812 33.847656 279.585938 31.484375 279.585938 Z M 18.097656 240.582031 C 15.476562 240.582031 13.117188 242.183594 12.152344 244.65625 C 8.082031 255.058594 9.480469 267.324219 15.136719 270.902344 C 20.5 274.289062 30.96875 273.933594 37.894531 273.699219 L 38.988281 273.660156 C 46.253906 273.421875 59.046875 270.769531 62.433594 264.648438 C 64.695312 260.558594 64.246094 245.816406 61.085938 242.996094 C 59.695312 241.753906 55.605469 241.167969 53.414062 240.851562 L 52.8125 240.761719 C 46.496094 239.839844 40.089844 240.121094 33.300781 240.425781 C 28.441406 240.640625 23.410156 240.863281 18.453125 240.59375 C 18.332031 240.585938 18.214844 240.582031 18.097656 240.582031 Z M 18.097656 240.582031 " fill-opacity="1" fill-rule="nonzero"/><path fill="#191617" d="M 18.886719 349.972656 C 16.953125 349.972656 15.105469 349.792969 13.523438 349.265625 C 7.566406 347.265625 5.90625 340.8125 4.441406 335.121094 C 4.21875 334.253906 4 333.398438 3.765625 332.570312 C 0.765625 321.917969 3.089844 315.160156 5.566406 311.367188 C 8.335938 307.128906 12.738281 304.390625 17.964844 303.660156 L 18.25 303.621094 L 18.539062 303.636719 C 22.792969 303.898438 27.046875 303.652344 31.546875 303.386719 C 36.777344 303.078125 42.183594 302.757812 47.613281 303.3125 C 48.3125 303.386719 49.183594 303.441406 50.152344 303.503906 C 55.503906 303.855469 60.152344 304.292969 62.902344 306.152344 C 69.296875 310.46875 76.074219 331.703125 71.976562 338.808594 C 69.308594 343.4375 62.078125 344.71875 54.265625 345.714844 C 53.222656 345.847656 52.308594 345.964844 51.597656 346.085938 L 49.601562 346.429688 C 42.6875 347.625 35.539062 348.859375 28.519531 349.265625 C 27.667969 349.316406 26.621094 349.421875 25.515625 349.53125 C 23.371094 349.742188 21.074219 349.972656 18.886719 349.972656 Z M 18.488281 309.390625 C 15.054688 309.941406 12.179688 311.75 10.378906 314.511719 C 7.757812 318.519531 7.386719 324.226562 9.296875 331.011719 C 9.539062 331.878906 9.773438 332.777344 10.003906 333.6875 C 11.160156 338.171875 12.355469 342.8125 15.351562 343.816406 C 17.546875 344.550781 21.820312 344.125 24.941406 343.8125 C 26.109375 343.695312 27.210938 343.582031 28.183594 343.527344 C 34.875 343.136719 41.863281 341.933594 48.621094 340.765625 L 50.625 340.421875 C 51.425781 340.28125 52.402344 340.15625 53.535156 340.011719 C 57.125 339.554688 65.527344 338.480469 66.996094 335.933594 C 69.53125 331.539062 63.679688 313.613281 59.683594 310.910156 C 58 309.773438 52.648438 309.425781 49.777344 309.238281 C 48.730469 309.167969 47.785156 309.105469 47.027344 309.03125 C 42.058594 308.519531 36.886719 308.824219 31.882812 309.121094 C 27.511719 309.378906 22.988281 309.644531 18.488281 309.390625 Z M 18.488281 309.390625 " fill-opacity="1" fill-rule="nonzero"/></svg>