<svg xmlns="http://www.w3.org/2000/svg" xmlns:xlink="http://www.w3.org/1999/xlink" width="500" zoomAndPan="magnify" viewBox="0 0 375 374.999991" height="500" preserveAspectRatio="xMidYMid meet" version="1.0"><defs><clipPath id="30a88e4078"><path d="M 180.019531 136.707031 L 218.933594 136.707031 L 218.933594 207.695312 L 180.019531 207.695312 Z M 180.019531 136.707031 " clip-rule="nonzero"/></clipPath><clipPath id="f603b89938"><path d="M 180.019531 136.707031 L 218.933594 136.707031 L 218.933594 169 L 180.019531 169 Z M 180.019531 136.707031 " clip-rule="nonzero"/></clipPath></defs><g clip-path="url(#30a88e4078)"><path fill="#f5b493" d="M 180.019531 136.707031 L 218.933594 136.707031 L 218.933594 207.695312 L 180.019531 207.695312 Z M 180.019531 136.707031 " fill-opacity="1" fill-rule="nonzero"/></g><g clip-path="url(#f603b89938)"><path fill="#eba284" d="M 173.328125 160.859375 C 188.761719 170.28125 207.484375 170.933594 223.316406 161.765625 L 223.972656 131.359375 L 172.703125 131.359375 Z M 173.328125 160.859375 " fill-opacity="1" fill-rule="nonzero"/></g><path fill="#287eef" d="M 175.734375 178.105469 C 166.863281 177.847656 158.058594 176.914062 149.328125 175.308594 C 140.597656 173.707031 132.039062 171.449219 123.65625 168.535156 C 115.269531 165.625 107.152344 162.09375 99.308594 157.941406 C 91.460938 153.789062 83.976562 149.0625 76.855469 143.769531 L 136.839844 56.023438 L 125.84375 39.3125 C 125.84375 39.3125 22.460938 115.320312 19.375 144.367188 C 16.289062 173.414062 133.101562 253.117188 133.101562 253.117188 C 133.101562 253.117188 183.707031 219.324219 175.734375 178.105469 Z M 175.734375 178.105469 " fill-opacity="1" fill-rule="nonzero"/><path fill="#287eef" d="M 210.609375 178.105469 C 219.480469 177.847656 228.28125 176.914062 237.011719 175.3125 C 245.742188 173.707031 254.300781 171.449219 262.683594 168.535156 C 271.070312 165.625 279.183594 162.09375 287.027344 157.941406 C 294.871094 153.789062 302.355469 149.0625 309.476562 143.769531 L 249.503906 56.023438 L 260.488281 39.332031 C 260.488281 39.332031 363.871094 115.320312 366.996094 144.367188 C 370.117188 173.414062 253.234375 253.117188 253.234375 253.117188 C 253.234375 253.117188 202.664062 219.324219 210.609375 178.105469 Z M 210.609375 178.105469 " fill-opacity="1" fill-rule="nonzero"/><path fill="#f5b493" d="M 249.195312 79.214844 C 249.46875 83.167969 249.0625 87.050781 247.976562 90.859375 C 247.515625 92.492188 244.707031 103.304688 241.265625 114.460938 C 238.0625 124.816406 226.839844 158.933594 198.949219 160.558594 C 175.960938 161.695312 159.058594 135.144531 152.492188 113.523438 C 151.375 106.652344 146.136719 86.59375 145.882812 77.972656 C 145.832031 76.210938 145.917969 74.453125 146.136719 72.707031 C 146.136719 72.707031 146.789062 41.78125 165.148438 24.601562 C 169.222656 20.773438 173.886719 17.914062 179.148438 16.023438 C 180.890625 15.679688 196 7.800781 217.042969 15.886719 L 217.90625 16.023438 C 249.957031 27.476562 250.890625 72.714844 250.890625 72.714844 C 250.320312 74.703125 249.757812 76.925781 249.195312 79.214844 Z M 249.195312 79.214844 " fill-opacity="1" fill-rule="nonzero"/><path fill="#2d1929" d="M 196.535156 114.859375 C 192.46875 113.832031 190.078125 112.21875 189.460938 110.058594 C 188.074219 105.273438 196.179688 102.449219 194.984375 87.492188 C 194.972656 87.367188 195.007812 87.257812 195.089844 87.160156 C 195.171875 87.066406 195.273438 87.011719 195.398438 87.003906 C 195.527344 86.992188 195.636719 87.027344 195.730469 87.109375 C 195.828125 87.191406 195.878906 87.292969 195.890625 87.421875 C 197.105469 102.585938 189.117188 105.636719 190.335938 109.804688 C 190.859375 111.617188 193.058594 113.035156 196.761719 113.980469 C 196.882812 114.011719 196.976562 114.078125 197.039062 114.1875 C 197.101562 114.296875 197.121094 114.410156 197.089844 114.53125 C 197.054688 114.652344 196.988281 114.746094 196.878906 114.808594 C 196.769531 114.875 196.65625 114.890625 196.535156 114.859375 Z M 196.535156 114.859375 " fill-opacity="1" fill-rule="nonzero"/><path fill="#2d1929" d="M 180.019531 90.652344 C 180.019531 94.28125 178.105469 97.277344 175.734375 97.285156 C 173.367188 97.296875 171.441406 94.320312 171.441406 90.660156 C 171.441406 87.003906 173.355469 84.027344 175.726562 84.027344 C 178.09375 84.027344 180.019531 86.984375 180.019531 90.652344 Z M 180.019531 90.652344 " fill-opacity="1" fill-rule="nonzero"/><path fill="#2d1929" d="M 165.855469 76.644531 C 165.503906 76.644531 165.238281 76.484375 165.070312 76.175781 C 164.898438 75.863281 164.90625 75.558594 165.09375 75.257812 C 165.15625 75.148438 171.859375 64.847656 183.832031 67.578125 C 184.074219 67.632812 184.261719 67.769531 184.394531 67.980469 C 184.527344 68.1875 184.566406 68.414062 184.515625 68.660156 C 184.460938 68.90625 184.328125 69.09375 184.113281 69.230469 C 183.902344 69.367188 183.671875 69.40625 183.425781 69.347656 C 172.730469 66.90625 166.863281 75.847656 166.621094 76.230469 C 166.441406 76.507812 166.1875 76.644531 165.855469 76.644531 Z M 165.855469 76.644531 " fill-opacity="1" fill-rule="nonzero"/><path fill="#2d1929" d="M 221.921875 90.660156 C 221.921875 94.292969 219.984375 97.285156 217.617188 97.285156 C 215.246094 97.285156 213.332031 94.308594 213.332031 90.652344 C 213.332031 86.992188 215.265625 84.027344 217.636719 84.027344 C 220.003906 84.027344 221.921875 86.992188 221.921875 90.660156 Z M 221.921875 90.660156 " fill-opacity="1" fill-rule="nonzero"/><path fill="#2d1929" d="M 227.449219 76.746094 C 227.109375 76.746094 226.855469 76.597656 226.675781 76.308594 C 226.441406 75.929688 220.683594 66.925781 209.945312 69.25 C 209.695312 69.300781 209.460938 69.257812 209.246094 69.117188 C 209.03125 68.976562 208.898438 68.78125 208.847656 68.53125 C 208.792969 68.28125 208.835938 68.046875 208.976562 67.832031 C 209.117188 67.621094 209.3125 67.484375 209.5625 67.433594 C 221.566406 64.835938 228.15625 75.210938 228.222656 75.320312 C 228.433594 75.625 228.449219 75.941406 228.273438 76.269531 C 228.097656 76.597656 227.820312 76.757812 227.449219 76.746094 Z M 227.449219 76.746094 " fill-opacity="1" fill-rule="nonzero"/><path fill="#287eef" d="M 193.148438 173.339844 C 161.21875 176.808594 138.121094 204.898438 136.921875 220.800781 C 136.351562 228.425781 138.691406 232.292969 152.828125 291.308594 L 257.066406 291.308594 C 258.582031 287.171875 260.625 281.261719 262.695312 274.066406 C 265.417969 264.679688 267.585938 256.964844 268.304688 248.96875 C 268.304688 248.96875 269.820312 232.128906 263.203125 216.0625 C 253.667969 192.890625 225.453125 169.820312 193.148438 173.339844 Z M 193.148438 173.339844 " fill-opacity="1" fill-rule="nonzero"/><path fill="#f5b493" d="M 180.019531 174.328125 C 179.722656 188.207031 191.6875 198.082031 202.417969 196.558594 C 211.796875 195.222656 219.914062 185.222656 218.761719 173.367188 C 215.59375 171.628906 212.226562 170.484375 208.65625 169.9375 C 200.847656 168.683594 187.945312 171.660156 180.019531 174.328125 Z M 180.019531 174.328125 " fill-opacity="1" fill-rule="nonzero"/><path fill="#efefef" d="M 207.53125 129.699219 C 207.183594 131.605469 208.285156 132.421875 208.121094 133.546875 C 207.765625 136.054688 201.402344 137.324219 197.070312 137.570312 C 192.421875 137.832031 189.027344 138.023438 187.03125 135.5625 C 185.257812 133.375 185.003906 129.617188 186.71875 127.601562 C 187.800781 126.332031 189.136719 126.359375 196.761719 126.285156 C 204.160156 126.222656 208.019531 126.152344 208.355469 127.449219 C 208.5 128.039062 207.773438 128.300781 207.53125 129.699219 Z M 207.53125 129.699219 " fill-opacity="1" fill-rule="nonzero"/><path fill="#2d1929" d="M 180.019531 12.210938 C 163.222656 10.394531 154.4375 14.804688 149.578125 18.871094 C 128.023438 36.925781 148.5625 78.777344 128.324219 160.570312 C 128.324219 160.570312 162.707031 185.175781 181.589844 183.152344 L 180.019531 154.960938 C 170.324219 142.707031 159.902344 125.6875 154.90625 104.839844 C 151.421875 90.269531 152.664062 82.492188 155.027344 76.773438 C 157.886719 69.875 161.890625 67.105469 167.5625 60.699219 C 173.238281 54.289062 180.65625 44.140625 186.628906 28.820312 C 189.828125 33.75 193.324219 38.464844 197.113281 42.957031 C 200.902344 47.449219 204.957031 51.6875 209.277344 55.675781 C 213.597656 59.660156 218.148438 63.359375 222.929688 66.777344 C 227.714844 70.195312 232.691406 73.300781 237.863281 76.09375 C 238.375 82.765625 238.351562 89.4375 237.792969 96.109375 C 237.230469 102.777344 236.144531 109.359375 234.53125 115.855469 C 232.917969 122.351562 230.796875 128.675781 228.167969 134.832031 C 225.539062 140.988281 222.4375 146.894531 218.859375 152.554688 L 218.589844 183.269531 C 222.40625 181.589844 226.089844 179.652344 229.640625 177.457031 C 233.1875 175.261719 236.5625 172.828125 239.769531 170.15625 C 242.976562 167.488281 245.980469 164.605469 248.785156 161.515625 C 251.585938 158.425781 254.160156 155.152344 256.503906 151.703125 C 261.558594 111.519531 257.820312 79.851562 253.777344 59.335938 C 247.640625 27.941406 240.160156 19.226562 233.339844 14.378906 C 213.277344 0.203125 185.457031 10.1875 180.019531 12.210938 Z M 180.019531 12.210938 " fill-opacity="1" fill-rule="nonzero"/><path fill="#f5b493" d="M 157.359375 108.421875 C 150.304688 111.28125 141.769531 106.609375 138.292969 98.058594 C 134.816406 89.507812 137.738281 80.222656 144.800781 77.363281 C 151.867188 74.503906 160.390625 79.179688 163.867188 87.730469 C 167.347656 96.277344 164.421875 105.574219 157.359375 108.421875 Z M 157.359375 108.421875 " fill-opacity="1" fill-rule="nonzero"/><path fill="#2d1929" d="M 150.6875 102.378906 C 150.574219 102.378906 150.476562 102.34375 150.386719 102.277344 C 150.269531 102.167969 147.398438 99.738281 147.527344 97.558594 C 147.625 95.660156 149.652344 94.835938 150.503906 94.554688 C 150.214844 89.625 147.597656 82.320312 142.769531 83.28125 C 142.644531 83.304688 142.527344 83.28125 142.421875 83.207031 C 142.316406 83.136719 142.253906 83.039062 142.230469 82.914062 C 142.207031 82.789062 142.230469 82.671875 142.300781 82.566406 C 142.375 82.460938 142.472656 82.398438 142.597656 82.375 C 148.1875 81.265625 151.222656 89.179688 151.429688 94.871094 C 151.4375 95.121094 151.320312 95.277344 151.078125 95.335938 C 151.078125 95.335938 148.523438 95.925781 148.433594 97.605469 C 148.351562 99.027344 150.25 100.953125 150.976562 101.570312 C 151.144531 101.707031 151.191406 101.875 151.121094 102.078125 C 151.046875 102.28125 150.902344 102.382812 150.6875 102.378906 Z M 150.6875 102.378906 " fill-opacity="1" fill-rule="nonzero"/><path fill="#f5b493" d="M 255.058594 98.058594 C 251.589844 106.636719 243.054688 111.28125 235.992188 108.421875 C 228.929688 105.566406 226.003906 96.304688 229.484375 87.730469 C 232.960938 79.152344 241.484375 74.511719 248.550781 77.363281 C 255.613281 80.214844 258.519531 89.480469 255.058594 98.058594 Z M 255.058594 98.058594 " fill-opacity="1" fill-rule="nonzero"/><path fill="#2d1929" d="M 242.675781 102.378906 C 242.464844 102.375 242.324219 102.277344 242.253906 102.078125 C 242.179688 101.882812 242.226562 101.714844 242.382812 101.578125 C 243.121094 100.960938 245.007812 99.039062 244.925781 97.613281 C 244.835938 95.933594 242.3125 95.34375 242.285156 95.34375 C 242.042969 95.285156 241.921875 95.132812 241.929688 94.882812 C 242.140625 89.171875 245.179688 81.265625 250.765625 82.382812 C 250.886719 82.410156 250.984375 82.476562 251.050781 82.582031 C 251.121094 82.6875 251.144531 82.800781 251.117188 82.925781 C 251.09375 83.050781 251.03125 83.144531 250.925781 83.21875 C 250.820312 83.289062 250.707031 83.3125 250.582031 83.289062 C 245.753906 82.328125 243.136719 89.644531 242.855469 94.5625 C 243.710938 94.835938 245.726562 95.671875 245.835938 97.578125 C 245.960938 99.746094 243.109375 102.179688 242.964844 102.289062 C 242.878906 102.351562 242.78125 102.378906 242.675781 102.378906 Z M 242.675781 102.378906 " fill-opacity="1" fill-rule="nonzero"/><path fill="#efefef" d="M 171.441406 123.816406 C 170.832031 123.816406 170.222656 123.789062 169.613281 123.726562 C 169.007812 123.667969 168.402344 123.578125 167.804688 123.460938 C 167.207031 123.339844 166.613281 123.191406 166.03125 123.015625 C 165.445312 122.839844 164.871094 122.632812 164.308594 122.398438 C 163.742188 122.164062 163.191406 121.90625 162.652344 121.617188 C 162.117188 121.328125 161.59375 121.015625 161.085938 120.675781 C 160.578125 120.339844 160.089844 119.976562 159.617188 119.589844 C 159.144531 119.199219 158.691406 118.792969 158.261719 118.359375 C 157.828125 117.929688 157.417969 117.476562 157.03125 117.003906 C 156.644531 116.53125 156.28125 116.042969 155.941406 115.535156 C 155.601562 115.027344 155.289062 114.503906 155.003906 113.96875 C 154.714844 113.429688 154.453125 112.878906 154.21875 112.3125 C 153.988281 111.75 153.78125 111.175781 153.605469 110.59375 C 153.425781 110.007812 153.277344 109.417969 153.160156 108.820312 C 153.039062 108.21875 152.949219 107.617188 152.890625 107.007812 C 152.832031 106.402344 152.800781 105.792969 152.800781 105.183594 C 152.800781 104.574219 152.832031 103.964844 152.890625 103.355469 C 152.949219 102.75 153.039062 102.144531 153.160156 101.546875 C 153.277344 100.949219 153.425781 100.359375 153.605469 99.773438 C 153.78125 99.191406 153.988281 98.617188 154.21875 98.050781 C 154.453125 97.488281 154.714844 96.9375 155.003906 96.398438 C 155.289062 95.859375 155.601562 95.339844 155.941406 94.832031 C 156.28125 94.324219 156.644531 93.832031 157.03125 93.363281 C 157.417969 92.890625 157.828125 92.4375 158.261719 92.007812 C 158.691406 91.574219 159.144531 91.164062 159.617188 90.777344 C 160.085938 90.390625 160.578125 90.027344 161.085938 89.6875 C 161.59375 89.351562 162.117188 89.035156 162.652344 88.75 C 163.191406 88.460938 163.742188 88.199219 164.308594 87.96875 C 164.871094 87.734375 165.445312 87.527344 166.03125 87.351562 C 166.613281 87.175781 167.207031 87.027344 167.804688 86.90625 C 168.402344 86.789062 169.007812 86.699219 169.613281 86.636719 C 170.222656 86.578125 170.832031 86.546875 171.441406 86.546875 C 172.050781 86.546875 172.660156 86.578125 173.269531 86.636719 C 173.875 86.699219 174.476562 86.789062 175.078125 86.90625 C 175.675781 87.027344 176.265625 87.175781 176.851562 87.351562 C 177.433594 87.527344 178.007812 87.734375 178.574219 87.96875 C 179.136719 88.199219 179.6875 88.460938 180.226562 88.75 C 180.765625 89.035156 181.289062 89.351562 181.796875 89.6875 C 182.304688 90.027344 182.792969 90.390625 183.265625 90.777344 C 183.738281 91.164062 184.1875 91.574219 184.621094 92.007812 C 185.050781 92.4375 185.460938 92.890625 185.847656 93.363281 C 186.234375 93.832031 186.597656 94.324219 186.9375 94.832031 C 187.277344 95.339844 187.589844 95.859375 187.878906 96.398438 C 188.167969 96.9375 188.425781 97.488281 188.660156 98.050781 C 188.894531 98.617188 189.101562 99.191406 189.277344 99.773438 C 189.453125 100.359375 189.601562 100.949219 189.722656 101.546875 C 189.839844 102.144531 189.929688 102.75 189.988281 103.355469 C 190.050781 103.964844 190.078125 104.574219 190.078125 105.183594 C 190.078125 105.792969 190.050781 106.402344 189.988281 107.007812 C 189.929688 107.617188 189.839844 108.21875 189.71875 108.816406 C 189.597656 109.414062 189.449219 110.007812 189.273438 110.589844 C 189.097656 111.175781 188.890625 111.746094 188.65625 112.3125 C 188.421875 112.875 188.160156 113.425781 187.875 113.964844 C 187.585938 114.5 187.273438 115.023438 186.933594 115.53125 C 186.59375 116.039062 186.230469 116.527344 185.84375 117 C 185.457031 117.472656 185.046875 117.921875 184.617188 118.355469 C 184.183594 118.785156 183.730469 119.195312 183.261719 119.582031 C 182.789062 119.96875 182.300781 120.332031 181.792969 120.671875 C 181.285156 121.011719 180.761719 121.324219 180.222656 121.613281 C 179.683594 121.898438 179.132812 122.160156 178.570312 122.394531 C 178.007812 122.628906 177.433594 122.832031 176.847656 123.011719 C 176.265625 123.1875 175.675781 123.335938 175.074219 123.457031 C 174.476562 123.578125 173.875 123.667969 173.265625 123.726562 C 172.660156 123.785156 172.050781 123.816406 171.441406 123.816406 Z M 171.441406 88.363281 C 170.890625 88.363281 170.339844 88.390625 169.792969 88.445312 C 169.242188 88.5 168.699219 88.578125 168.160156 88.6875 C 167.617188 88.792969 167.085938 88.929688 166.558594 89.089844 C 166.03125 89.25 165.511719 89.433594 165.003906 89.644531 C 164.492188 89.855469 163.996094 90.089844 163.511719 90.351562 C 163.023438 90.609375 162.550781 90.894531 162.09375 91.199219 C 161.636719 91.503906 161.195312 91.832031 160.769531 92.183594 C 160.34375 92.53125 159.933594 92.902344 159.542969 93.289062 C 159.15625 93.679688 158.785156 94.085938 158.4375 94.511719 C 158.085938 94.9375 157.757812 95.382812 157.453125 95.839844 C 157.144531 96.296875 156.863281 96.769531 156.605469 97.253906 C 156.34375 97.742188 156.109375 98.238281 155.898438 98.746094 C 155.6875 99.253906 155.5 99.773438 155.339844 100.300781 C 155.179688 100.828125 155.046875 101.363281 154.941406 101.902344 C 154.832031 102.441406 154.753906 102.988281 154.699219 103.535156 C 154.644531 104.082031 154.617188 104.632812 154.617188 105.183594 C 154.617188 105.734375 154.644531 106.285156 154.699219 106.832031 C 154.753906 107.378906 154.832031 107.925781 154.941406 108.464844 C 155.046875 109.003906 155.179688 109.539062 155.339844 110.066406 C 155.5 110.59375 155.6875 111.109375 155.898438 111.621094 C 156.109375 112.128906 156.34375 112.625 156.605469 113.113281 C 156.863281 113.597656 157.144531 114.070312 157.453125 114.527344 C 157.757812 114.984375 158.085938 115.425781 158.4375 115.851562 C 158.785156 116.277344 159.15625 116.6875 159.542969 117.078125 C 159.933594 117.464844 160.34375 117.835938 160.769531 118.183594 C 161.195312 118.535156 161.636719 118.863281 162.09375 119.167969 C 162.550781 119.472656 163.023438 119.757812 163.511719 120.015625 C 163.996094 120.277344 164.492188 120.511719 165.003906 120.722656 C 165.511719 120.933594 166.03125 121.117188 166.558594 121.277344 C 167.085938 121.4375 167.617188 121.570312 168.160156 121.679688 C 168.699219 121.785156 169.242188 121.867188 169.792969 121.921875 C 170.339844 121.976562 170.890625 122.003906 171.441406 122.003906 C 171.992188 122.003906 172.542969 121.976562 173.089844 121.921875 C 173.636719 121.867188 174.183594 121.785156 174.722656 121.679688 C 175.261719 121.570312 175.796875 121.4375 176.324219 121.277344 C 176.851562 121.117188 177.371094 120.933594 177.878906 120.722656 C 178.386719 120.511719 178.886719 120.277344 179.371094 120.015625 C 179.855469 119.757812 180.328125 119.472656 180.789062 119.167969 C 181.246094 118.863281 181.6875 118.535156 182.113281 118.183594 C 182.539062 117.835938 182.945312 117.464844 183.335938 117.078125 C 183.726562 116.6875 184.097656 116.277344 184.445312 115.851562 C 184.792969 115.425781 185.121094 114.984375 185.429688 114.527344 C 185.734375 114.070312 186.019531 113.597656 186.277344 113.113281 C 186.539062 112.625 186.773438 112.128906 186.984375 111.621094 C 187.195312 111.109375 187.378906 110.59375 187.539062 110.066406 C 187.699219 109.539062 187.832031 109.003906 187.941406 108.464844 C 188.046875 107.925781 188.128906 107.378906 188.183594 106.832031 C 188.238281 106.285156 188.265625 105.734375 188.265625 105.183594 C 188.261719 104.632812 188.234375 104.082031 188.179688 103.535156 C 188.128906 102.988281 188.046875 102.441406 187.9375 101.902344 C 187.828125 101.363281 187.695312 100.828125 187.535156 100.304688 C 187.375 99.777344 187.191406 99.257812 186.980469 98.75 C 186.769531 98.242188 186.53125 97.742188 186.273438 97.257812 C 186.011719 96.773438 185.730469 96.300781 185.421875 95.84375 C 185.117188 95.386719 184.789062 94.945312 184.441406 94.519531 C 184.089844 94.09375 183.722656 93.683594 183.332031 93.296875 C 182.941406 92.90625 182.535156 92.535156 182.109375 92.1875 C 181.683594 91.839844 181.242188 91.511719 180.78125 91.203125 C 180.324219 90.898438 179.851562 90.613281 179.367188 90.355469 C 178.882812 90.09375 178.382812 89.859375 177.875 89.648438 C 177.367188 89.4375 176.847656 89.253906 176.320312 89.09375 C 175.796875 88.933594 175.261719 88.796875 174.722656 88.691406 C 174.179688 88.582031 173.636719 88.5 173.089844 88.445312 C 172.539062 88.390625 171.992188 88.363281 171.441406 88.363281 Z M 171.441406 88.363281 " fill-opacity="1" fill-rule="nonzero"/><path fill="#efefef" d="M 214.683594 115.332031 C 214.074219 115.332031 213.464844 115.300781 212.855469 115.242188 C 212.25 115.179688 211.648438 115.09375 211.046875 114.972656 C 210.449219 114.855469 209.859375 114.707031 209.273438 114.527344 C 208.6875 114.351562 208.113281 114.144531 207.550781 113.914062 C 206.988281 113.679688 206.4375 113.417969 205.898438 113.128906 C 205.359375 112.84375 204.835938 112.53125 204.328125 112.191406 C 203.820312 111.851562 203.332031 111.488281 202.859375 111.101562 C 202.386719 110.714844 201.9375 110.304688 201.503906 109.875 C 201.074219 109.441406 200.664062 108.988281 200.277344 108.519531 C 199.886719 108.046875 199.523438 107.558594 199.1875 107.050781 C 198.847656 106.542969 198.535156 106.019531 198.246094 105.480469 C 197.957031 104.941406 197.695312 104.390625 197.464844 103.828125 C 197.230469 103.265625 197.023438 102.691406 196.847656 102.105469 C 196.671875 101.523438 196.523438 100.929688 196.402344 100.332031 C 196.285156 99.734375 196.195312 99.128906 196.132812 98.523438 C 196.074219 97.914062 196.042969 97.308594 196.042969 96.695312 C 196.042969 96.085938 196.074219 95.476562 196.132812 94.871094 C 196.195312 94.261719 196.285156 93.660156 196.402344 93.0625 C 196.523438 92.460938 196.671875 91.871094 196.847656 91.289062 C 197.023438 90.703125 197.230469 90.128906 197.464844 89.566406 C 197.695312 89 197.957031 88.449219 198.246094 87.914062 C 198.535156 87.375 198.847656 86.851562 199.1875 86.34375 C 199.523438 85.835938 199.886719 85.347656 200.277344 84.875 C 200.664062 84.402344 201.074219 83.953125 201.503906 83.519531 C 201.9375 83.089844 202.386719 82.679688 202.859375 82.292969 C 203.332031 81.90625 203.820312 81.542969 204.328125 81.203125 C 204.835938 80.863281 205.359375 80.550781 205.898438 80.261719 C 206.4375 79.976562 206.988281 79.714844 207.550781 79.480469 C 208.113281 79.246094 208.6875 79.042969 209.273438 78.863281 C 209.859375 78.6875 210.449219 78.539062 211.046875 78.421875 C 211.648438 78.300781 212.25 78.210938 212.855469 78.152344 C 213.464844 78.09375 214.074219 78.0625 214.683594 78.0625 C 215.292969 78.0625 215.902344 78.09375 216.511719 78.152344 C 217.117188 78.210938 217.722656 78.300781 218.320312 78.421875 C 218.917969 78.539062 219.511719 78.6875 220.09375 78.863281 C 220.679688 79.042969 221.253906 79.246094 221.816406 79.480469 C 222.382812 79.714844 222.933594 79.976562 223.46875 80.261719 C 224.007812 80.550781 224.53125 80.863281 225.039062 81.203125 C 225.546875 81.542969 226.035156 81.90625 226.507812 82.292969 C 226.980469 82.679688 227.433594 83.089844 227.863281 83.519531 C 228.296875 83.953125 228.707031 84.402344 229.09375 84.875 C 229.480469 85.347656 229.84375 85.835938 230.183594 86.34375 C 230.519531 86.851562 230.835938 87.375 231.121094 87.914062 C 231.410156 88.449219 231.671875 89 231.90625 89.566406 C 232.136719 90.128906 232.34375 90.703125 232.519531 91.289062 C 232.699219 91.871094 232.847656 92.460938 232.964844 93.0625 C 233.085938 93.660156 233.171875 94.261719 233.234375 94.871094 C 233.292969 95.476562 233.324219 96.085938 233.324219 96.695312 C 233.324219 97.308594 233.292969 97.914062 233.230469 98.523438 C 233.171875 99.128906 233.082031 99.730469 232.960938 100.332031 C 232.84375 100.929688 232.695312 101.519531 232.515625 102.105469 C 232.339844 102.6875 232.132812 103.261719 231.898438 103.824219 C 231.664062 104.386719 231.40625 104.9375 231.117188 105.476562 C 230.828125 106.015625 230.515625 106.539062 230.175781 107.046875 C 229.835938 107.550781 229.472656 108.042969 229.085938 108.511719 C 228.699219 108.984375 228.289062 109.4375 227.859375 109.867188 C 227.425781 110.300781 226.976562 110.707031 226.503906 111.09375 C 226.03125 111.484375 225.542969 111.847656 225.035156 112.183594 C 224.527344 112.523438 224.003906 112.835938 223.46875 113.125 C 222.929688 113.414062 222.378906 113.675781 221.8125 113.90625 C 221.25 114.140625 220.675781 114.347656 220.09375 114.523438 C 219.507812 114.703125 218.917969 114.851562 218.320312 114.96875 C 217.71875 115.089844 217.117188 115.179688 216.511719 115.238281 C 215.902344 115.300781 215.292969 115.332031 214.683594 115.332031 Z M 214.683594 79.878906 C 214.132812 79.878906 213.582031 79.90625 213.035156 79.957031 C 212.488281 80.011719 211.941406 80.09375 211.402344 80.199219 C 210.863281 80.308594 210.328125 80.441406 209.800781 80.601562 C 209.273438 80.761719 208.753906 80.945312 208.246094 81.15625 C 207.738281 81.367188 207.238281 81.605469 206.753906 81.863281 C 206.269531 82.121094 205.796875 82.40625 205.335938 82.710938 C 204.878906 83.019531 204.4375 83.34375 204.011719 83.695312 C 203.585938 84.042969 203.175781 84.414062 202.789062 84.804688 C 202.398438 85.191406 202.027344 85.601562 201.679688 86.027344 C 201.328125 86.453125 201.003906 86.894531 200.695312 87.351562 C 200.390625 87.808594 200.105469 88.28125 199.847656 88.769531 C 199.585938 89.253906 199.351562 89.75 199.140625 90.261719 C 198.929688 90.769531 198.746094 91.285156 198.585938 91.8125 C 198.425781 92.339844 198.292969 92.875 198.183594 93.414062 C 198.078125 93.957031 197.996094 94.5 197.941406 95.046875 C 197.886719 95.597656 197.859375 96.144531 197.859375 96.695312 C 197.859375 97.246094 197.886719 97.796875 197.941406 98.34375 C 197.996094 98.894531 198.078125 99.4375 198.183594 99.976562 C 198.292969 100.519531 198.425781 101.050781 198.585938 101.578125 C 198.746094 102.105469 198.929688 102.625 199.140625 103.132812 C 199.351562 103.640625 199.585938 104.140625 199.847656 104.625 C 200.105469 105.109375 200.390625 105.582031 200.695312 106.039062 C 201.003906 106.5 201.328125 106.941406 201.679688 107.367188 C 202.027344 107.792969 202.398438 108.199219 202.789062 108.589844 C 203.175781 108.980469 203.585938 109.347656 204.011719 109.699219 C 204.4375 110.046875 204.878906 110.375 205.335938 110.679688 C 205.796875 110.988281 206.269531 111.269531 206.753906 111.53125 C 207.238281 111.789062 207.738281 112.023438 208.246094 112.234375 C 208.753906 112.445312 209.273438 112.632812 209.800781 112.792969 C 210.328125 112.953125 210.863281 113.085938 211.402344 113.191406 C 211.941406 113.300781 212.488281 113.378906 213.035156 113.433594 C 213.582031 113.488281 214.132812 113.515625 214.683594 113.515625 C 215.234375 113.515625 215.785156 113.488281 216.332031 113.433594 C 216.882812 113.378906 217.425781 113.300781 217.964844 113.191406 C 218.507812 113.085938 219.039062 112.953125 219.566406 112.792969 C 220.09375 112.632812 220.613281 112.445312 221.121094 112.234375 C 221.632812 112.023438 222.128906 111.789062 222.613281 111.53125 C 223.101562 111.269531 223.574219 110.988281 224.03125 110.679688 C 224.488281 110.375 224.929688 110.046875 225.355469 109.699219 C 225.78125 109.347656 226.191406 108.980469 226.582031 108.589844 C 226.96875 108.199219 227.339844 107.792969 227.6875 107.367188 C 228.039062 106.941406 228.367188 106.5 228.671875 106.039062 C 228.976562 105.582031 229.261719 105.109375 229.519531 104.625 C 229.78125 104.140625 230.015625 103.640625 230.226562 103.132812 C 230.4375 102.625 230.625 102.105469 230.785156 101.578125 C 230.941406 101.050781 231.078125 100.519531 231.183594 99.976562 C 231.292969 99.4375 231.371094 98.894531 231.425781 98.34375 C 231.480469 97.796875 231.507812 97.246094 231.507812 96.695312 C 231.507812 96.144531 231.480469 95.597656 231.425781 95.046875 C 231.371094 94.5 231.289062 93.957031 231.179688 93.417969 C 231.074219 92.875 230.9375 92.34375 230.777344 91.816406 C 230.617188 91.289062 230.433594 90.773438 230.222656 90.261719 C 230.011719 89.753906 229.777344 89.257812 229.515625 88.773438 C 229.257812 88.285156 228.972656 87.8125 228.667969 87.355469 C 228.359375 86.898438 228.03125 86.457031 227.683594 86.03125 C 227.332031 85.605469 226.964844 85.199219 226.574219 84.808594 C 226.183594 84.417969 225.777344 84.050781 225.351562 83.699219 C 224.925781 83.351562 224.484375 83.023438 224.027344 82.71875 C 223.570312 82.410156 223.097656 82.128906 222.609375 81.867188 C 222.125 81.609375 221.628906 81.375 221.121094 81.164062 C 220.609375 80.953125 220.09375 80.765625 219.566406 80.605469 C 219.039062 80.445312 218.503906 80.3125 217.964844 80.203125 C 217.425781 80.09375 216.878906 80.015625 216.332031 79.960938 C 215.785156 79.90625 215.234375 79.878906 214.683594 79.878906 Z M 214.683594 79.878906 " fill-opacity="1" fill-rule="nonzero"/><path fill="#efefef" d="M 188.65625 101.859375 C 188.402344 101.882812 188.183594 101.808594 187.992188 101.648438 C 187.800781 101.484375 187.695312 101.277344 187.675781 101.027344 C 187.652344 100.777344 187.726562 100.554688 187.886719 100.363281 C 188.050781 100.171875 188.257812 100.066406 188.507812 100.046875 L 197.042969 98.667969 C 197.292969 98.628906 197.523438 98.683594 197.726562 98.832031 C 197.929688 98.980469 198.054688 99.183594 198.09375 99.433594 C 198.132812 99.683594 198.074219 99.910156 197.925781 100.117188 C 197.777344 100.320312 197.574219 100.441406 197.324219 100.480469 C 187.339844 102.070312 188.773438 101.859375 188.65625 101.859375 Z M 188.65625 101.859375 " fill-opacity="1" fill-rule="nonzero"/><path fill="#efefef" d="M 156.878906 95.988281 C 156.65625 95.992188 156.457031 95.921875 156.285156 95.78125 C 156.113281 95.636719 156.007812 95.457031 155.96875 95.234375 L 151.957031 72.816406 C 151.914062 72.566406 151.964844 72.335938 152.109375 72.128906 C 152.257812 71.917969 152.457031 71.792969 152.707031 71.75 C 152.957031 71.707031 153.1875 71.757812 153.394531 71.902344 C 153.601562 72.050781 153.730469 72.246094 153.773438 72.496094 L 157.792969 94.890625 C 157.824219 95.027344 157.820312 95.164062 157.789062 95.296875 C 157.753906 95.433594 157.695312 95.554688 157.605469 95.664062 C 157.515625 95.769531 157.40625 95.851562 157.277344 95.910156 C 157.152344 95.964844 157.015625 95.992188 156.878906 95.988281 Z M 156.878906 95.988281 " fill-opacity="1" fill-rule="nonzero"/><path fill="#efefef" d="M 232.160156 93.347656 C 232.007812 93.347656 231.867188 93.3125 231.730469 93.238281 C 231.597656 93.167969 231.488281 93.066406 231.40625 92.941406 C 231.320312 92.8125 231.273438 92.675781 231.257812 92.523438 C 231.242188 92.371094 231.265625 92.226562 231.324219 92.085938 L 239.089844 73.722656 C 239.191406 73.503906 239.359375 73.347656 239.585938 73.261719 C 239.8125 73.175781 240.039062 73.179688 240.265625 73.273438 C 240.488281 73.371094 240.648438 73.527344 240.746094 73.753906 C 240.839844 73.976562 240.84375 74.203125 240.757812 74.429688 L 232.996094 92.785156 C 232.925781 92.953125 232.816406 93.089844 232.664062 93.191406 C 232.511719 93.292969 232.34375 93.347656 232.160156 93.347656 Z M 232.160156 93.347656 " fill-opacity="1" fill-rule="nonzero"/><path fill="#287eef" d="M 125.855469 233.121094 L 132.171875 372.683594 L 269.984375 372.683594 L 268.902344 227.328125 Z M 125.855469 233.121094 " fill-opacity="1" fill-rule="nonzero"/><path fill="#f5b493" d="M 102.792969 57.058594 L 122.332031 39.703125 C 133.101562 23.929688 133.308594 18.464844 138.554688 14.097656 C 142.453125 10.859375 146.589844 9.757812 150.722656 8.652344 C 151.359375 8.480469 160.292969 6.148438 161.152344 8.070312 C 161.460938 8.78125 160.636719 9.886719 159.765625 10.738281 C 164.105469 9.75 170.269531 8.707031 167.644531 12.246094 C 164.132812 16.976562 155.097656 19.125 151.128906 23.09375 C 146.355469 27.894531 150.332031 34.949219 148.597656 43.0625 C 146.78125 51.710938 124.546875 74.085938 124.546875 74.085938 C 124.546875 74.085938 106.707031 72.644531 102.792969 57.058594 Z M 102.792969 57.058594 " fill-opacity="1" fill-rule="nonzero"/><path fill="#f5b493" d="M 143.8125 24.117188 C 154.082031 20.144531 165.800781 16.078125 166.828125 18.039062 C 167.019531 18.410156 166.828125 19 165.75 20.351562 C 160.746094 26.570312 154.460938 26.707031 150.097656 29.972656 C 147.371094 32.023438 144.285156 36.191406 143.742188 45.613281 C 143.058594 44.894531 142.449219 44.117188 141.914062 43.28125 C 141.378906 42.445312 140.929688 41.566406 140.5625 40.644531 C 140.195312 39.722656 139.921875 38.773438 139.734375 37.800781 C 139.550781 36.828125 139.460938 35.84375 139.464844 34.851562 C 139.46875 33.859375 139.566406 32.878906 139.757812 31.902344 C 139.949219 30.929688 140.230469 29.984375 140.601562 29.066406 C 140.972656 28.144531 141.429688 27.269531 141.972656 26.4375 C 142.511719 25.605469 143.125 24.832031 143.8125 24.117188 Z M 143.8125 24.117188 " fill-opacity="1" fill-rule="nonzero"/><path fill="#f5b493" d="M 283.585938 57.058594 L 264.054688 39.703125 C 253.277344 23.929688 253.070312 18.464844 247.832031 14.097656 C 243.929688 10.859375 239.789062 9.757812 235.65625 8.652344 C 235.019531 8.480469 226.097656 6.148438 225.234375 8.070312 C 224.917969 8.78125 225.75 9.886719 226.625 10.738281 C 222.285156 9.75 216.117188 8.707031 218.742188 12.246094 C 222.246094 16.976562 231.289062 19.125 235.25 23.09375 C 240.03125 27.894531 236.054688 34.949219 237.78125 43.0625 C 239.640625 51.710938 261.839844 74.085938 261.839844 74.085938 C 261.839844 74.085938 279.636719 72.644531 283.585938 57.058594 Z M 283.585938 57.058594 " fill-opacity="1" fill-rule="nonzero"/><path fill="#f5b493" d="M 242.519531 24.117188 C 232.253906 20.144531 220.539062 16.078125 219.515625 18.039062 C 219.324219 18.410156 219.515625 19 220.59375 20.351562 C 225.597656 26.570312 231.878906 26.707031 236.238281 29.972656 C 238.960938 32.023438 242.046875 36.191406 242.59375 45.613281 C 243.277344 44.894531 243.886719 44.117188 244.421875 43.28125 C 244.957031 42.445312 245.410156 41.566406 245.777344 40.644531 C 246.144531 39.722656 246.417969 38.777344 246.605469 37.800781 C 246.789062 36.828125 246.878906 35.84375 246.875 34.851562 C 246.875 33.859375 246.777344 32.875 246.585938 31.902344 C 246.390625 30.929688 246.109375 29.984375 245.738281 29.0625 C 245.363281 28.144531 244.90625 27.269531 244.367188 26.4375 C 243.824219 25.605469 243.210938 24.832031 242.519531 24.117188 Z M 242.519531 24.117188 " fill-opacity="1" fill-rule="nonzero"/><path fill="#287eef" d="M 95.511719 62.847656 L 116.257812 45.058594 L 133.589844 64.339844 L 115.339844 87.457031 Z M 95.511719 62.847656 " fill-opacity="1" fill-rule="nonzero"/><path fill="#287eef" d="M 251.5625 62.996094 L 271.464844 88.136719 L 292.890625 64.539062 L 266.90625 42.246094 C 266.90625 42.246094 262.949219 57.640625 251.5625 62.996094 Z M 251.5625 62.996094 " fill-opacity="1" fill-rule="nonzero"/><path fill="#1573d8" d="M 126.542969 248.550781 C 126.542969 248.550781 131.003906 216.355469 136.839844 214.183594 C 142.679688 212.015625 145.464844 314.257812 159.835938 319.855469 C 174.210938 325.457031 232.152344 308.265625 237.246094 312.441406 C 242.339844 316.617188 201.753906 337.003906 209.753906 348.121094 C 217.753906 359.242188 250.863281 372.683594 250.863281 372.683594 L 132.171875 372.683594 C 129.878906 331.378906 128.003906 290 126.542969 248.550781 Z M 126.542969 248.550781 " fill-opacity="1" fill-rule="nonzero"/><path fill="#1573d8" d="M 268.851562 241.996094 C 266.871094 223.324219 265.261719 210.15625 263.902344 202.367188 C 263.757812 201.542969 263.476562 199.953125 263.902344 199.800781 C 265.453125 199.191406 275.3125 220.867188 280.941406 233.238281 Z M 268.851562 241.996094 " fill-opacity="1" fill-rule="nonzero"/><path fill="#1573d8" d="M 76.855469 143.75 C 76.855469 143.75 56.691406 148.460938 41.390625 146.21875 C 41.390625 146.21875 58.433594 155.796875 84.0625 148.789062 Z M 76.855469 143.75 " fill-opacity="1" fill-rule="nonzero"/><path fill="#1573d8" d="M 309.476562 143.75 L 299.808594 150.441406 C 310.332031 153.054688 327.046875 154.976562 338.503906 152.863281 C 339.695312 152.636719 342.136719 151.855469 342.136719 151.292969 C 342.109375 149.714844 327.5 149.902344 309.476562 143.75 Z M 309.476562 143.75 " fill-opacity="1" fill-rule="nonzero"/><path fill="#e73f46" d="M 21.320312 374.742188 C 19.941406 374.75 18.585938 374.574219 17.253906 374.222656 C 15.921875 373.867188 14.65625 373.347656 13.460938 372.664062 C 12.265625 371.976562 11.183594 371.148438 10.207031 370.175781 C 9.230469 369.203125 8.394531 368.121094 7.707031 366.929688 C 7.015625 365.738281 6.492188 364.476562 6.132812 363.144531 C 5.773438 361.8125 5.597656 360.460938 5.59375 359.082031 C 5.59375 357.703125 5.773438 356.351562 6.128906 355.019531 C 6.488281 353.6875 7.011719 352.425781 7.699219 351.234375 L 83.964844 219.167969 C 84.652344 217.976562 85.480469 216.894531 86.453125 215.921875 C 87.425781 214.949219 88.507812 214.121094 89.699219 213.433594 C 90.890625 212.742188 92.152344 212.222656 93.480469 211.867188 C 94.808594 211.507812 96.160156 211.332031 97.539062 211.332031 C 98.914062 211.332031 100.265625 211.507812 101.59375 211.867188 C 102.921875 212.222656 104.183594 212.742188 105.375 213.433594 C 106.566406 214.121094 107.648438 214.949219 108.621094 215.921875 C 109.59375 216.894531 110.421875 217.976562 111.109375 219.167969 L 187.375 351.234375 C 188.0625 352.425781 188.585938 353.6875 188.945312 355.019531 C 189.300781 356.351562 189.480469 357.703125 189.480469 359.082031 C 189.480469 360.460938 189.300781 361.8125 188.941406 363.144531 C 188.582031 364.476562 188.058594 365.738281 187.367188 366.929688 C 186.679688 368.121094 185.84375 369.203125 184.867188 370.175781 C 183.890625 371.148438 182.808594 371.976562 181.613281 372.664062 C 180.417969 373.347656 179.152344 373.867188 177.820312 374.222656 C 176.488281 374.574219 175.132812 374.75 173.753906 374.742188 Z M 21.320312 374.742188 " fill-opacity="1" fill-rule="nonzero"/><path fill="#efefef" d="M 21.320312 367.238281 C 20.960938 367.238281 20.605469 367.214844 20.253906 367.167969 C 19.898438 367.121094 19.550781 367.050781 19.207031 366.957031 C 18.863281 366.863281 18.523438 366.75 18.195312 366.613281 C 17.867188 366.476562 17.546875 366.320312 17.238281 366.140625 C 16.929688 365.960938 16.632812 365.765625 16.351562 365.546875 C 16.066406 365.328125 15.800781 365.09375 15.546875 364.84375 C 15.296875 364.589844 15.0625 364.324219 14.84375 364.039062 C 14.628906 363.757812 14.429688 363.460938 14.25 363.152344 C 14.074219 362.84375 13.914062 362.523438 13.78125 362.195312 C 13.644531 361.867188 13.527344 361.53125 13.4375 361.183594 C 13.34375 360.839844 13.273438 360.492188 13.226562 360.136719 C 13.179688 359.785156 13.15625 359.429688 13.15625 359.074219 C 13.15625 358.71875 13.179688 358.363281 13.226562 358.007812 C 13.273438 357.65625 13.339844 357.304688 13.433594 356.960938 C 13.523438 356.617188 13.640625 356.28125 13.773438 355.949219 C 13.910156 355.621094 14.066406 355.300781 14.246094 354.992188 L 90.511719 222.925781 C 90.6875 222.617188 90.886719 222.324219 91.105469 222.039062 C 91.320312 221.757812 91.558594 221.492188 91.808594 221.238281 C 92.0625 220.988281 92.328125 220.753906 92.613281 220.539062 C 92.894531 220.320312 93.191406 220.125 93.5 219.945312 C 93.808594 219.769531 94.128906 219.613281 94.457031 219.476562 C 94.785156 219.339844 95.121094 219.226562 95.46875 219.132812 C 95.8125 219.042969 96.160156 218.972656 96.511719 218.925781 C 96.867188 218.878906 97.222656 218.855469 97.578125 218.855469 C 97.933594 218.855469 98.289062 218.878906 98.640625 218.925781 C 98.996094 218.972656 99.34375 219.042969 99.6875 219.132812 C 100.03125 219.226562 100.371094 219.339844 100.699219 219.476562 C 101.027344 219.613281 101.347656 219.769531 101.65625 219.945312 C 101.964844 220.125 102.261719 220.320312 102.542969 220.539062 C 102.828125 220.753906 103.09375 220.988281 103.347656 221.238281 C 103.597656 221.492188 103.835938 221.757812 104.050781 222.039062 C 104.269531 222.324219 104.46875 222.617188 104.644531 222.925781 L 180.910156 354.992188 C 181.089844 355.300781 181.246094 355.621094 181.382812 355.949219 C 181.515625 356.28125 181.632812 356.617188 181.722656 356.960938 C 181.816406 357.304688 181.882812 357.65625 181.929688 358.007812 C 181.976562 358.363281 182 358.71875 182 359.074219 C 182 359.429688 181.976562 359.785156 181.929688 360.136719 C 181.882812 360.492188 181.8125 360.839844 181.71875 361.183594 C 181.628906 361.53125 181.511719 361.867188 181.375 362.195312 C 181.242188 362.523438 181.082031 362.84375 180.90625 363.152344 C 180.726562 363.460938 180.527344 363.757812 180.3125 364.039062 C 180.09375 364.324219 179.859375 364.589844 179.609375 364.84375 C 179.355469 365.09375 179.089844 365.328125 178.804688 365.546875 C 178.523438 365.765625 178.226562 365.960938 177.917969 366.140625 C 177.609375 366.320312 177.289062 366.476562 176.960938 366.613281 C 176.632812 366.75 176.292969 366.863281 175.949219 366.957031 C 175.605469 367.050781 175.257812 367.121094 174.902344 367.167969 C 174.550781 367.214844 174.195312 367.238281 173.835938 367.238281 Z M 21.320312 367.238281 " fill-opacity="1" fill-rule="nonzero"/><path fill="#231f20" d="M 88.429688 250.828125 C 88.417969 250.441406 88.484375 250.066406 88.625 249.707031 C 88.765625 249.34375 88.972656 249.023438 89.242188 248.746094 C 89.511719 248.46875 89.824219 248.253906 90.183594 248.105469 C 90.539062 247.953125 90.914062 247.878906 91.300781 247.878906 C 100.605469 247.878906 105.21875 251.464844 105.21875 258.625 C 105.21875 265.785156 100.207031 321.382812 103.792969 324.640625 C 104.25 324.878906 104.605469 325.222656 104.863281 325.667969 C 105.121094 326.113281 105.238281 326.59375 105.21875 327.109375 C 105.21875 329.261719 102.757812 330.367188 101.003906 330.738281 C 90.347656 333.609375 89.203125 316.789062 89.203125 305.761719 C 89.203125 302.675781 89.621094 297.402344 89.765625 287.941406 C 90.164062 268.121094 90.792969 254.875 89.285156 252.789062 C 88.710938 252.25 88.40625 251.585938 88.375 250.800781 M 99.417969 338.761719 C 104.265625 338.761719 106.734375 340.515625 106.734375 344.089844 C 106.734375 348.867188 102.359375 354.4375 99.734375 354.4375 C 96.394531 354.4375 91.855469 348.867188 91.855469 344.089844 C 91.855469 340.515625 94.40625 338.761719 99.417969 338.761719 " fill-opacity="1" fill-rule="nonzero"/></svg>