<svg xmlns="http://www.w3.org/2000/svg" xmlns:xlink="http://www.w3.org/1999/xlink" width="500" zoomAndPan="magnify" viewBox="0 0 375 374.999991" height="500" preserveAspectRatio="xMidYMid meet" version="1.0"><defs><clipPath id="88744e92f5"><path d="M 190.289062 127.40625 L 340.289062 127.40625 L 340.289062 247.40625 L 190.289062 247.40625 Z M 190.289062 127.40625 " clip-rule="nonzero"/></clipPath><clipPath id="d652ed6ca2"><path d="M 34.246094 127.40625 L 184.246094 127.40625 L 184.246094 247.40625 L 34.246094 247.40625 Z M 34.246094 127.40625 " clip-rule="nonzero"/></clipPath></defs><g clip-path="url(#88744e92f5)"><path fill="#0097b2" d="M 340.226562 153.117188 C 332.488281 155.554688 324.238281 156.308594 320.472656 155.917969 C 327.878906 151.703125 336.492188 139.085938 333.84375 127.40625 C 329.867188 132.796875 318.003906 138.574219 303.734375 145.050781 C 277.632812 156.882812 243.761719 165.761719 227.683594 173.230469 C 204.472656 183.976562 191.496094 220.316406 190.351562 229.890625 L 207.273438 240.128906 C 207.273438 240.128906 215.308594 247.292969 225.9375 247.59375 C 225.9375 241.574219 227.082031 236.121094 227.082031 236.121094 C 227.082031 236.121094 236.835938 246.449219 247.765625 245.035156 C 246.050781 237.566406 246.5 232.570312 246.5 232.570312 C 246.5 232.570312 259.238281 241.300781 269.292969 236.996094 C 265.859375 231.546875 263.421875 222.785156 263.421875 222.785156 C 263.421875 222.785156 277.902344 233.5625 290.519531 229.257812 C 285.339844 224.082031 283.894531 217.847656 283.925781 215.769531 C 283.925781 215.769531 301.71875 224.683594 311.203125 217.488281 C 306.324219 215.199219 299.429688 204.148438 300.210938 203.457031 C 300.210938 203.457031 321.828125 209.960938 329.296875 198.25 C 320.835938 196.472656 313.789062 192.226562 310.929688 188.164062 C 316.679688 188.734375 335.046875 188.734375 338.476562 177.261719 C 333.300781 176.992188 323.636719 175.246094 318.214844 171.996094 C 323.574219 171.511719 337.035156 169.226562 340.226562 153.117188 Z M 340.226562 153.117188 " fill-opacity="1" fill-rule="nonzero"/></g><g clip-path="url(#d652ed6ca2)"><path fill="#0cc0df" d="M 34.3125 153.117188 C 42.046875 155.554688 50.296875 156.308594 54.0625 155.917969 C 46.65625 151.703125 38.042969 139.085938 40.695312 127.40625 C 44.667969 132.796875 56.53125 138.574219 70.800781 145.050781 C 96.902344 156.882812 130.773438 165.761719 146.851562 173.230469 C 170.0625 183.976562 183.039062 220.316406 184.183594 229.890625 L 167.261719 240.128906 C 167.261719 240.128906 159.226562 247.292969 148.597656 247.59375 C 148.597656 241.574219 147.453125 236.121094 147.453125 236.121094 C 147.453125 236.121094 137.699219 246.449219 126.769531 245.035156 C 128.484375 237.566406 128.035156 232.570312 128.035156 232.570312 C 128.035156 232.570312 115.296875 241.300781 105.242188 236.996094 C 108.675781 231.546875 111.113281 222.785156 111.113281 222.785156 C 111.113281 222.785156 96.632812 233.5625 84.015625 229.257812 C 89.195312 224.082031 90.640625 217.847656 90.609375 215.769531 C 90.609375 215.769531 72.816406 224.683594 63.332031 217.488281 C 68.210938 215.199219 75.105469 204.148438 74.324219 203.457031 C 74.324219 203.457031 52.707031 209.960938 45.238281 198.25 C 53.699219 196.472656 60.746094 192.226562 63.605469 188.164062 C 57.855469 188.734375 39.488281 188.734375 36.058594 177.261719 C 41.234375 176.992188 50.898438 175.246094 56.320312 171.996094 C 50.960938 171.511719 37.503906 169.226562 34.3125 153.117188 Z M 34.3125 153.117188 " fill-opacity="1" fill-rule="nonzero"/></g></svg>