<svg xmlns="http://www.w3.org/2000/svg" xmlns:xlink="http://www.w3.org/1999/xlink" width="500" zoomAndPan="magnify" viewBox="0 0 375 374.999991" height="500" preserveAspectRatio="xMidYMid meet" version="1.0"><defs><clipPath id="57bfeaa493"><path d="M 0 35.796875 L 68 35.796875 L 68 104 L 0 104 Z M 0 35.796875 " clip-rule="nonzero"/></clipPath><clipPath id="f465d94dbb"><path d="M 106 45 L 372.75 45 L 372.75 94 L 106 94 Z M 106 45 " clip-rule="nonzero"/></clipPath><clipPath id="cf6590830e"><path d="M 106 162 L 372.75 162 L 372.75 211 L 106 211 Z M 106 162 " clip-rule="nonzero"/></clipPath><clipPath id="de0e56d7c2"><path d="M 0 269 L 68 269 L 68 337.296875 L 0 337.296875 Z M 0 269 " clip-rule="nonzero"/></clipPath><clipPath id="98c5830b29"><path d="M 106 279 L 372.75 279 L 372.75 328 L 106 328 Z M 106 279 " clip-rule="nonzero"/></clipPath></defs><g clip-path="url(#57bfeaa493)"><path fill="#0cc0df" d="M 67.410156 69.648438 C 67.410156 70.753906 67.355469 71.855469 67.246094 72.953125 C 67.136719 74.050781 66.976562 75.140625 66.761719 76.226562 C 66.546875 77.308594 66.277344 78.375 65.957031 79.433594 C 65.636719 80.488281 65.265625 81.527344 64.84375 82.546875 C 64.421875 83.566406 63.949219 84.5625 63.429688 85.535156 C 62.910156 86.511719 62.34375 87.457031 61.730469 88.375 C 61.117188 89.292969 60.457031 90.175781 59.757812 91.03125 C 59.058594 91.882812 58.316406 92.699219 57.539062 93.480469 C 56.757812 94.261719 55.941406 95 55.085938 95.703125 C 54.234375 96.402344 53.347656 97.058594 52.429688 97.671875 C 51.511719 98.285156 50.566406 98.851562 49.59375 99.371094 C 48.621094 99.894531 47.625 100.363281 46.605469 100.785156 C 45.585938 101.207031 44.546875 101.582031 43.488281 101.902344 C 42.433594 102.222656 41.363281 102.488281 40.28125 102.703125 C 39.199219 102.917969 38.109375 103.082031 37.011719 103.191406 C 35.910156 103.296875 34.808594 103.351562 33.707031 103.351562 C 32.601562 103.351562 31.5 103.296875 30.402344 103.191406 C 29.304688 103.082031 28.214844 102.917969 27.132812 102.703125 C 26.050781 102.488281 24.980469 102.222656 23.921875 101.902344 C 22.867188 101.582031 21.828125 101.207031 20.808594 100.785156 C 19.789062 100.363281 18.792969 99.894531 17.820312 99.371094 C 16.847656 98.851562 15.902344 98.285156 14.984375 97.671875 C 14.066406 97.058594 13.179688 96.402344 12.328125 95.703125 C 11.472656 95 10.65625 94.261719 9.875 93.480469 C 9.09375 92.699219 8.355469 91.882812 7.65625 91.03125 C 6.953125 90.175781 6.296875 89.292969 5.683594 88.375 C 5.070312 87.457031 4.503906 86.511719 3.984375 85.535156 C 3.464844 84.5625 2.992188 83.566406 2.570312 82.546875 C 2.148438 81.527344 1.777344 80.488281 1.457031 79.433594 C 1.136719 78.375 0.867188 77.308594 0.652344 76.226562 C 0.4375 75.140625 0.273438 74.050781 0.167969 72.953125 C 0.0585938 71.855469 0.00390625 70.753906 0.00390625 69.648438 C 0.00390625 68.546875 0.0585938 67.445312 0.167969 66.347656 C 0.273438 65.25 0.4375 64.15625 0.652344 63.074219 C 0.867188 61.992188 1.136719 60.921875 1.457031 59.867188 C 1.777344 58.8125 2.148438 57.773438 2.570312 56.753906 C 2.992188 55.734375 3.464844 54.738281 3.984375 53.761719 C 4.503906 52.789062 5.070312 51.84375 5.683594 50.925781 C 6.296875 50.007812 6.953125 49.121094 7.65625 48.269531 C 8.355469 47.417969 9.09375 46.601562 9.875 45.820312 C 10.65625 45.039062 11.472656 44.296875 12.328125 43.597656 C 13.179688 42.898438 14.066406 42.242188 14.984375 41.628906 C 15.902344 41.015625 16.847656 40.449219 17.820312 39.925781 C 18.792969 39.40625 19.789062 38.9375 20.808594 38.511719 C 21.828125 38.089844 22.867188 37.71875 23.921875 37.398438 C 24.980469 37.078125 26.050781 36.8125 27.132812 36.59375 C 28.214844 36.378906 29.304688 36.21875 30.402344 36.109375 C 31.5 36.003906 32.601562 35.949219 33.707031 35.949219 C 34.808594 35.949219 35.910156 36.003906 37.011719 36.109375 C 38.109375 36.21875 39.199219 36.378906 40.28125 36.59375 C 41.363281 36.8125 42.433594 37.078125 43.488281 37.398438 C 44.546875 37.71875 45.585938 38.089844 46.605469 38.511719 C 47.625 38.9375 48.621094 39.40625 49.59375 39.925781 C 50.566406 40.449219 51.511719 41.015625 52.429688 41.628906 C 53.347656 42.242188 54.234375 42.898438 55.085938 43.597656 C 55.941406 44.296875 56.757812 45.039062 57.539062 45.820312 C 58.316406 46.601562 59.058594 47.417969 59.757812 48.269531 C 60.457031 49.121094 61.117188 50.007812 61.730469 50.925781 C 62.34375 51.84375 62.910156 52.789062 63.429688 53.761719 C 63.949219 54.738281 64.421875 55.734375 64.84375 56.753906 C 65.265625 57.773438 65.636719 58.8125 65.957031 59.867188 C 66.277344 60.921875 66.546875 61.992188 66.761719 63.074219 C 66.976562 64.15625 67.136719 65.25 67.246094 66.347656 C 67.355469 67.445312 67.410156 68.546875 67.410156 69.648438 Z M 67.410156 69.648438 " fill-opacity="1" fill-rule="nonzero"/></g><g clip-path="url(#f465d94dbb)"><path fill="#0cc0df" d="M 106.898438 45.742188 L 372.941406 45.742188 L 372.941406 93.558594 L 106.898438 93.558594 Z M 106.898438 45.742188 " fill-opacity="1" fill-rule="nonzero"/></g><path fill="#0cc0df" d="M 67.410156 186.261719 C 67.410156 187.367188 67.355469 188.46875 67.246094 189.566406 C 67.136719 190.664062 66.976562 191.753906 66.761719 192.835938 C 66.546875 193.917969 66.277344 194.988281 65.957031 196.046875 C 65.636719 197.101562 65.265625 198.140625 64.84375 199.160156 C 64.421875 200.179688 63.949219 201.175781 63.429688 202.148438 C 62.910156 203.121094 62.34375 204.066406 61.730469 204.984375 C 61.117188 205.902344 60.457031 206.789062 59.757812 207.640625 C 59.058594 208.496094 58.316406 209.3125 57.539062 210.09375 C 56.757812 210.875 55.941406 211.613281 55.085938 212.3125 C 54.234375 213.015625 53.347656 213.671875 52.429688 214.285156 C 51.511719 214.898438 50.566406 215.464844 49.59375 215.984375 C 48.621094 216.503906 47.625 216.976562 46.605469 217.398438 C 45.585938 217.820312 44.546875 218.191406 43.488281 218.511719 C 42.433594 218.832031 41.363281 219.101562 40.28125 219.316406 C 39.199219 219.53125 38.109375 219.695312 37.011719 219.800781 C 35.910156 219.910156 34.808594 219.964844 33.707031 219.964844 C 32.601562 219.964844 31.5 219.910156 30.402344 219.800781 C 29.304688 219.695312 28.214844 219.53125 27.132812 219.316406 C 26.050781 219.101562 24.980469 218.832031 23.921875 218.511719 C 22.867188 218.191406 21.828125 217.820312 20.808594 217.398438 C 19.789062 216.976562 18.792969 216.503906 17.820312 215.984375 C 16.847656 215.464844 15.902344 214.898438 14.984375 214.285156 C 14.066406 213.671875 13.179688 213.015625 12.328125 212.3125 C 11.472656 211.613281 10.65625 210.875 9.875 210.09375 C 9.09375 209.3125 8.355469 208.496094 7.65625 207.640625 C 6.953125 206.789062 6.296875 205.902344 5.683594 204.984375 C 5.070312 204.066406 4.503906 203.121094 3.984375 202.148438 C 3.464844 201.175781 2.992188 200.179688 2.570312 199.160156 C 2.148438 198.140625 1.777344 197.101562 1.457031 196.046875 C 1.136719 194.988281 0.867188 193.917969 0.652344 192.835938 C 0.4375 191.753906 0.273438 190.664062 0.167969 189.566406 C 0.0585938 188.46875 0.00390625 187.367188 0.00390625 186.261719 C 0.00390625 185.160156 0.0585938 184.058594 0.167969 182.957031 C 0.273438 181.859375 0.4375 180.769531 0.652344 179.6875 C 0.867188 178.605469 1.136719 177.535156 1.457031 176.480469 C 1.777344 175.421875 2.148438 174.386719 2.570312 173.363281 C 2.992188 172.34375 3.464844 171.347656 3.984375 170.375 C 4.503906 169.402344 5.070312 168.457031 5.683594 167.539062 C 6.296875 166.621094 6.953125 165.734375 7.65625 164.882812 C 8.355469 164.027344 9.09375 163.210938 9.875 162.429688 C 10.65625 161.652344 11.472656 160.910156 12.328125 160.210938 C 13.179688 159.511719 14.066406 158.851562 14.984375 158.238281 C 15.902344 157.625 16.847656 157.058594 17.820312 156.539062 C 18.792969 156.019531 19.789062 155.546875 20.808594 155.125 C 21.828125 154.703125 22.867188 154.332031 23.921875 154.011719 C 24.980469 153.691406 26.050781 153.421875 27.132812 153.207031 C 28.214844 152.992188 29.304688 152.832031 30.402344 152.722656 C 31.5 152.613281 32.601562 152.558594 33.707031 152.558594 C 34.808594 152.558594 35.910156 152.613281 37.011719 152.722656 C 38.109375 152.832031 39.199219 152.992188 40.28125 153.207031 C 41.363281 153.421875 42.433594 153.691406 43.488281 154.011719 C 44.546875 154.332031 45.585938 154.703125 46.605469 155.125 C 47.625 155.546875 48.621094 156.019531 49.59375 156.539062 C 50.566406 157.058594 51.511719 157.625 52.429688 158.238281 C 53.347656 158.851562 54.234375 159.511719 55.085938 160.210938 C 55.941406 160.910156 56.757812 161.652344 57.539062 162.429688 C 58.316406 163.210938 59.058594 164.027344 59.757812 164.882812 C 60.457031 165.734375 61.117188 166.621094 61.730469 167.539062 C 62.34375 168.457031 62.910156 169.402344 63.429688 170.375 C 63.949219 171.347656 64.421875 172.34375 64.84375 173.363281 C 65.265625 174.386719 65.636719 175.421875 65.957031 176.480469 C 66.277344 177.535156 66.546875 178.605469 66.761719 179.6875 C 66.976562 180.769531 67.136719 181.859375 67.246094 182.957031 C 67.355469 184.058594 67.410156 185.160156 67.410156 186.261719 Z M 67.410156 186.261719 " fill-opacity="1" fill-rule="nonzero"/><g clip-path="url(#cf6590830e)"><path fill="#0cc0df" d="M 106.898438 162.347656 L 372.941406 162.347656 L 372.941406 210.167969 L 106.898438 210.167969 Z M 106.898438 162.347656 " fill-opacity="1" fill-rule="nonzero"/></g><g clip-path="url(#de0e56d7c2)"><path fill="#0cc0df" d="M 67.410156 303.535156 C 67.410156 304.640625 67.355469 305.742188 67.246094 306.839844 C 67.136719 307.9375 66.976562 309.027344 66.761719 310.109375 C 66.546875 311.195312 66.277344 312.261719 65.957031 313.320312 C 65.636719 314.375 65.265625 315.414062 64.84375 316.433594 C 64.421875 317.453125 63.949219 318.449219 63.429688 319.421875 C 62.910156 320.394531 62.34375 321.34375 61.730469 322.261719 C 61.117188 323.175781 60.457031 324.0625 59.757812 324.917969 C 59.058594 325.769531 58.316406 326.585938 57.539062 327.367188 C 56.757812 328.148438 55.941406 328.886719 55.085938 329.589844 C 54.234375 330.289062 53.347656 330.945312 52.429688 331.558594 C 51.511719 332.171875 50.566406 332.738281 49.59375 333.257812 C 48.621094 333.777344 47.625 334.25 46.605469 334.671875 C 45.585938 335.09375 44.546875 335.464844 43.488281 335.785156 C 42.433594 336.105469 41.363281 336.375 40.28125 336.589844 C 39.199219 336.804688 38.109375 336.96875 37.011719 337.074219 C 35.910156 337.183594 34.808594 337.238281 33.707031 337.238281 C 32.601562 337.238281 31.5 337.183594 30.402344 337.074219 C 29.304688 336.96875 28.214844 336.804688 27.132812 336.589844 C 26.050781 336.375 24.980469 336.105469 23.921875 335.785156 C 22.867188 335.464844 21.828125 335.09375 20.808594 334.671875 C 19.789062 334.25 18.792969 333.777344 17.820312 333.257812 C 16.847656 332.738281 15.902344 332.171875 14.984375 331.558594 C 14.066406 330.945312 13.179688 330.289062 12.328125 329.589844 C 11.472656 328.886719 10.65625 328.148438 9.875 327.367188 C 9.09375 326.585938 8.355469 325.769531 7.65625 324.917969 C 6.953125 324.0625 6.296875 323.175781 5.683594 322.261719 C 5.070312 321.34375 4.503906 320.394531 3.984375 319.421875 C 3.464844 318.449219 2.992188 317.453125 2.570312 316.433594 C 2.148438 315.414062 1.777344 314.375 1.457031 313.320312 C 1.136719 312.261719 0.867188 311.195312 0.652344 310.109375 C 0.4375 309.027344 0.273438 307.9375 0.167969 306.839844 C 0.0585938 305.742188 0.00390625 304.640625 0.00390625 303.535156 C 0.00390625 302.433594 0.0585938 301.332031 0.167969 300.234375 C 0.273438 299.132812 0.4375 298.042969 0.652344 296.960938 C 0.867188 295.878906 1.136719 294.808594 1.457031 293.753906 C 1.777344 292.695312 2.148438 291.660156 2.570312 290.640625 C 2.992188 289.617188 3.464844 288.621094 3.984375 287.648438 C 4.503906 286.675781 5.070312 285.730469 5.683594 284.8125 C 6.296875 283.894531 6.953125 283.007812 7.65625 282.15625 C 8.355469 281.300781 9.09375 280.484375 9.875 279.707031 C 10.65625 278.925781 11.472656 278.183594 12.328125 277.484375 C 13.179688 276.785156 14.066406 276.128906 14.984375 275.515625 C 15.902344 274.902344 16.847656 274.332031 17.820312 273.8125 C 18.792969 273.292969 19.789062 272.820312 20.808594 272.398438 C 21.828125 271.976562 22.867188 271.605469 23.921875 271.285156 C 24.980469 270.964844 26.050781 270.695312 27.132812 270.480469 C 28.214844 270.265625 29.304688 270.105469 30.402344 269.996094 C 31.5 269.886719 32.601562 269.835938 33.707031 269.835938 C 34.808594 269.835938 35.910156 269.886719 37.011719 269.996094 C 38.109375 270.105469 39.199219 270.265625 40.28125 270.480469 C 41.363281 270.695312 42.433594 270.964844 43.488281 271.285156 C 44.546875 271.605469 45.585938 271.976562 46.605469 272.398438 C 47.625 272.820312 48.621094 273.292969 49.59375 273.8125 C 50.566406 274.332031 51.511719 274.902344 52.429688 275.515625 C 53.347656 276.128906 54.234375 276.785156 55.085938 277.484375 C 55.941406 278.183594 56.757812 278.925781 57.539062 279.707031 C 58.316406 280.484375 59.058594 281.300781 59.757812 282.15625 C 60.457031 283.007812 61.117188 283.894531 61.730469 284.8125 C 62.34375 285.730469 62.910156 286.675781 63.429688 287.648438 C 63.949219 288.621094 64.421875 289.617188 64.84375 290.640625 C 65.265625 291.660156 65.636719 292.695312 65.957031 293.753906 C 66.277344 294.808594 66.546875 295.878906 66.761719 296.960938 C 66.976562 298.042969 67.136719 299.132812 67.246094 300.234375 C 67.355469 301.332031 67.410156 302.433594 67.410156 303.535156 Z M 67.410156 303.535156 " fill-opacity="1" fill-rule="nonzero"/></g><g clip-path="url(#98c5830b29)"><path fill="#0cc0df" d="M 106.898438 279.632812 L 372.941406 279.632812 L 372.941406 327.445312 L 106.898438 327.445312 Z M 106.898438 279.632812 " fill-opacity="1" fill-rule="nonzero"/></g></svg>