<svg xmlns="http://www.w3.org/2000/svg" xmlns:xlink="http://www.w3.org/1999/xlink" width="500" zoomAndPan="magnify" viewBox="0 0 375 374.999991" height="500" preserveAspectRatio="xMidYMid meet" version="1.0"><defs><clipPath id="ab8364e8de"><path d="M 55.566406 1 L 319.566406 1 L 319.566406 375 L 55.566406 375 Z M 55.566406 1 " clip-rule="nonzero"/></clipPath></defs><g clip-path="url(#ab8364e8de)"><path fill="#0cc0df" d="M 290.613281 51.625 L 284.503906 51.625 L 284.503906 24.65625 C 284.503906 17.3125 281.179688 10.519531 275.386719 6.019531 C 269.589844 1.519531 262.183594 -0.03125 255.0625 1.789062 L 58.996094 51.757812 C 58.878906 51.789062 58.773438 51.847656 58.652344 51.878906 C 58.535156 51.921875 58.402344 51.953125 58.28125 52.011719 C 58.132812 52.085938 57.984375 52.160156 57.847656 52.25 C 57.761719 52.308594 57.65625 52.355469 57.566406 52.414062 C 57.402344 52.53125 57.253906 52.652344 57.105469 52.785156 C 57.046875 52.84375 56.984375 52.890625 56.925781 52.933594 C 56.730469 53.128906 56.554688 53.335938 56.40625 53.574219 C 56.359375 53.636719 56.34375 53.695312 56.300781 53.753906 C 56.195312 53.933594 56.089844 54.113281 56.003906 54.304688 C 55.957031 54.394531 55.925781 54.5 55.898438 54.605469 C 55.839844 54.765625 55.777344 54.929688 55.75 55.109375 C 55.71875 55.214844 55.71875 55.332031 55.703125 55.4375 C 55.675781 55.617188 55.660156 55.78125 55.644531 55.960938 C 55.644531 56.003906 55.628906 56.050781 55.628906 56.078125 L 55.628906 370.53125 C 55.628906 373.003906 57.625 375 60.097656 375 L 290.613281 375 C 306.417969 375 319.277344 362.140625 319.277344 346.335938 L 319.277344 80.289062 C 319.277344 64.480469 306.417969 51.625 290.613281 51.625 Z M 257.269531 10.445312 C 261.691406 9.3125 266.296875 10.28125 269.886719 13.082031 C 273.492188 15.882812 275.550781 20.097656 275.550781 24.671875 L 275.550781 51.625 L 95.722656 51.625 Z M 310.335938 346.335938 C 310.335938 357.210938 301.488281 366.0625 290.613281 366.0625 L 64.570312 366.0625 L 64.570312 60.5625 L 290.613281 60.5625 C 301.488281 60.5625 310.335938 69.414062 310.335938 80.289062 Z M 310.335938 346.335938 " fill-opacity="1" fill-rule="nonzero"/></g><path fill="#0cc0df" d="M 268.277344 163.527344 C 268.277344 163.527344 268.277344 163.511719 268.261719 163.511719 C 255.660156 130.304688 223.359375 108.015625 187.796875 108.015625 C 152.246094 108.015625 119.933594 130.320312 107.34375 163.511719 C 107.34375 163.527344 107.328125 163.527344 107.328125 163.542969 C 107.3125 163.585938 107.285156 163.632812 107.269531 163.675781 C 103.601562 173.375 101.742188 183.597656 101.742188 194.054688 C 101.742188 204.542969 103.601562 214.765625 107.269531 224.433594 C 107.285156 224.476562 107.3125 224.539062 107.328125 224.582031 C 107.328125 224.582031 107.328125 224.597656 107.34375 224.597656 C 119.945312 257.808594 152.246094 280.109375 187.796875 280.109375 C 223.34375 280.109375 255.660156 257.808594 268.261719 224.597656 C 268.261719 224.597656 268.261719 224.582031 268.277344 224.582031 C 268.292969 224.539062 268.324219 224.492188 268.339844 224.433594 C 272.003906 214.75 273.867188 204.527344 273.867188 194.039062 C 273.867188 183.582031 272.003906 173.359375 268.339844 163.675781 C 268.308594 163.617188 268.292969 163.574219 268.277344 163.527344 Z M 228.125 218.386719 C 229.199219 210.695312 229.78125 202.546875 229.78125 194.054688 C 229.78125 185.5625 229.199219 177.414062 228.125 169.726562 L 260.976562 169.726562 C 263.585938 177.546875 264.910156 185.710938 264.910156 194.054688 C 264.910156 202.414062 263.585938 210.578125 260.976562 218.386719 Z M 187.796875 271.15625 C 176.085938 271.15625 163.765625 254.441406 158.042969 227.308594 L 217.546875 227.308594 C 211.828125 254.453125 199.519531 271.15625 187.796875 271.15625 Z M 156.449219 218.386719 C 155.363281 210.875 154.75 202.742188 154.75 194.054688 C 154.75 185.371094 155.363281 177.234375 156.449219 169.726562 L 219.144531 169.726562 C 220.230469 177.234375 220.839844 185.371094 220.839844 194.054688 C 220.839844 202.742188 220.230469 210.875 219.144531 218.386719 Z M 114.613281 218.386719 C 112.007812 210.578125 110.679688 202.414062 110.679688 194.054688 C 110.679688 185.710938 112.007812 177.546875 114.613281 169.726562 L 147.464844 169.726562 C 146.390625 177.414062 145.8125 185.5625 145.8125 194.054688 C 145.8125 202.546875 146.390625 210.695312 147.464844 218.386719 Z M 187.796875 116.941406 C 199.507812 116.941406 211.828125 133.65625 217.546875 160.785156 L 158.042969 160.785156 C 163.765625 133.65625 176.085938 116.941406 187.796875 116.941406 Z M 257.371094 160.785156 L 226.636719 160.785156 C 223.226562 143.667969 217.234375 129.46875 209.59375 120.144531 C 230.285156 126.28125 247.882812 140.984375 257.371094 160.785156 Z M 166.015625 120.128906 C 158.371094 129.46875 152.382812 143.652344 148.96875 160.773438 L 118.234375 160.773438 C 127.722656 140.984375 145.320312 126.28125 166.015625 120.128906 Z M 118.234375 227.324219 L 148.96875 227.324219 C 152.382812 244.441406 158.371094 258.640625 166.015625 267.984375 C 145.320312 261.816406 127.722656 247.109375 118.234375 227.324219 Z M 209.59375 267.96875 C 217.234375 258.625 223.226562 244.441406 226.636719 227.324219 L 257.371094 227.324219 C 247.882812 247.109375 230.285156 261.816406 209.59375 267.96875 Z M 209.59375 267.96875 " fill-opacity="1" fill-rule="nonzero"/><path fill="#0cc0df" d="M 254.003906 309.683594 L 121.601562 309.683594 C 119.128906 309.683594 117.132812 311.679688 117.132812 314.152344 C 117.132812 316.625 119.128906 318.625 121.601562 318.625 L 254.003906 318.625 C 256.480469 318.625 258.476562 316.625 258.476562 314.152344 C 258.476562 311.679688 256.480469 309.683594 254.003906 309.683594 Z M 254.003906 309.683594 " fill-opacity="1" fill-rule="nonzero"/></svg>